<?xml version="1.0" standalone="no"?>
<!DOCTYPE svg PUBLIC "-//W3C//DTD SVG 20010904//EN"
 "http://www.w3.org/TR/2001/REC-SVG-20010904/DTD/svg10.dtd">
<svg version="1.0" xmlns="http://www.w3.org/2000/svg"
 width="256.000000pt" height="256.000000pt" viewBox="0 0 256.000000 256.000000"
 preserveAspectRatio="xMidYMid meet">
<metadata>
Created by potrace 1.11, written by Peter Selinger 2001-2013
</metadata>
<g transform="translate(0.000000,256.000000) scale(0.100000,-0.100000)"
fill="#000000" stroke="none">
<path d="M1339 2443 c-1 -5 -1 -12 0 -17 1 -5 -10 -6 -24 -3 -17 3 -23 1 -17
-5 15 -15 45 -5 48 15 1 9 0 17 -2 17 -2 0 -5 -3 -5 -7z"/>
<path d="M1375 2440 c-3 -5 -3 -10 2 -10 4 0 -2 -7 -13 -15 -22 -15 -126 -17
-117 -2 3 5 -5 3 -16 -5 -18 -11 -23 -11 -31 2 -6 10 -10 11 -10 3 0 -7 -5
-13 -11 -13 -6 0 -9 6 -6 13 3 8 -3 13 -18 13 -13 0 -21 -4 -19 -8 3 -5 10 -6
15 -3 5 4 9 2 9 -3 0 -5 -18 -9 -40 -9 -22 0 -40 4 -40 9 0 5 4 7 9 3 5 -3 12
-2 15 3 2 4 -6 8 -19 8 -15 0 -21 -5 -18 -13 3 -7 1 -13 -5 -13 -6 0 -12 5
-14 12 -2 6 -12 12 -21 14 -9 1 -15 -2 -11 -7 3 -5 10 -7 15 -4 5 4 9 2 9 -3
0 -5 -37 -8 -82 -7 -46 1 -96 -3 -113 -10 -16 -6 -36 -10 -42 -8 -7 3 -13 0
-13 -7 0 -6 5 -8 10 -5 13 8 13 -8 0 -21 -14 -14 -18 -77 -6 -93 9 -12 7 -13
-9 -8 -20 7 -20 7 -1 -8 20 -15 20 -15 0 -15 -15 -1 -16 -2 -4 -9 10 -6 15
-26 15 -63 0 -29 5 -57 10 -61 6 -5 0 -7 -13 -4 -12 3 -20 1 -16 -4 3 -5 11
-9 18 -9 14 0 16 -58 2 -79 -6 -9 -5 -12 1 -8 6 4 13 0 17 -8 3 -8 2 -15 -2
-15 -5 0 -16 -6 -27 -13 -14 -11 -15 -16 -5 -22 9 -5 11 -4 6 3 -4 7 -3 12 2
12 14 0 36 -29 28 -37 -3 -3 -6 0 -6 7 0 7 -3 10 -6 7 -4 -4 -1 -13 6 -22 10
-12 10 -15 -4 -15 -9 0 -16 5 -16 10 0 6 -6 10 -12 10 -7 -1 1 -12 17 -25 17
-14 26 -25 20 -25 -5 0 -3 -5 5 -10 11 -7 11 -10 2 -10 -8 0 -10 -5 -5 -12 11
-18 12 -58 1 -58 -5 0 -6 -6 -1 -12 4 -7 8 -24 8 -38 0 -14 4 -32 9 -40 7 -12
6 -13 -5 -2 -16 15 -39 16 -39 1 0 -5 4 -8 9 -5 5 3 14 -1 20 -8 10 -11 8 -16
-9 -21 -11 -3 -18 -10 -15 -14 2 -5 -9 -7 -26 -5 -25 3 -29 1 -20 -9 6 -8 8
-17 4 -20 -3 -4 -1 -7 5 -7 7 0 12 5 12 10 0 6 5 10 11 10 8 0 7 -5 -1 -15 -7
-9 -21 -13 -31 -10 -13 4 -16 1 -14 -12 2 -10 4 -20 4 -23 1 -3 5 1 10 9 13
20 42 6 38 -18 -5 -31 -13 -34 -39 -17 -14 9 -28 13 -31 9 -4 -3 -7 -1 -7 6 0
8 7 11 18 7 14 -5 14 -4 -2 9 -11 8 -15 15 -10 15 6 0 11 6 12 13 1 25 11 56
26 84 13 24 15 25 17 8 1 -11 1 -24 0 -29 -1 -5 5 -6 14 -2 9 3 19 6 21 6 2 0
4 5 4 11 0 5 -4 8 -9 4 -6 -3 -15 3 -21 14 -6 12 -18 18 -30 16 -24 -5 -25 4
-5 31 13 16 14 16 9 1 -5 -13 -2 -16 15 -14 12 2 27 9 33 15 14 14 3 16 -21 3
-25 -14 -24 14 2 36 19 17 20 17 8 -4 -9 -18 -9 -22 2 -17 7 2 13 18 13 34 0
16 -4 26 -9 23 -6 -4 -7 -1 -1 8 14 23 14 42 0 30 -7 -6 -16 -8 -20 -4 -4 4 4
13 16 20 17 9 19 12 7 13 -26 0 -42 -25 -27 -41 13 -14 23 -49 14 -49 -2 0
-13 15 -25 33 -11 17 -21 28 -21 22 1 -5 7 -19 15 -29 17 -23 10 -41 -9 -23
-8 6 -12 14 -11 17 2 3 -6 6 -18 7 -12 0 -16 -1 -9 -4 6 -3 9 -10 6 -15 -4 -6
-2 -8 3 -5 6 4 18 -2 28 -13 19 -21 9 -28 -13 -10 -9 7 -9 7 -2 -2 15 -18 12
-28 -5 -22 -8 4 -15 1 -15 -6 0 -6 5 -8 10 -5 16 10 11 -12 -7 -30 -16 -16
-17 -16 -30 1 -7 10 -13 13 -13 7 0 -7 8 -19 17 -28 16 -16 17 -16 30 1 10 14
13 15 13 3 0 -8 -5 -20 -12 -27 -8 -8 -8 -15 1 -26 10 -12 9 -15 -8 -13 -15 1
-19 6 -15 19 4 13 -1 21 -16 26 -12 4 -21 12 -20 17 0 6 -6 11 -15 11 -13 2
-13 1 0 -3 8 -2 12 -9 9 -14 -3 -6 3 -13 15 -16 25 -6 27 -16 6 -33 -8 -7 -13
-16 -10 -20 3 -5 2 -10 -2 -13 -5 -2 -1 -2 7 0 40 12 49 11 43 -3 -3 -7 -8
-12 -12 -10 -4 3 -13 1 -20 -3 -9 -6 -10 -11 -2 -15 6 -4 11 -2 11 4 0 6 5 8
11 4 17 -10 -12 -25 -35 -18 -12 4 -16 2 -12 -5 4 -6 14 -11 22 -11 15 0 15
-21 -1 -32 -5 -4 -17 -5 -26 -2 -10 2 -19 -2 -23 -12 -5 -14 -4 -15 8 -5 11
10 17 8 28 -8 8 -12 18 -18 21 -14 4 3 7 -1 7 -11 0 -9 -4 -15 -9 -12 -5 3 -8
-6 -8 -19 0 -14 3 -25 7 -25 4 0 12 -12 19 -27 14 -31 29 -21 37 23 2 16 1 25
-3 19 -15 -19 -39 -15 -40 7 -2 16 1 18 10 9 6 -6 16 -11 21 -11 6 0 4 5 -4
10 -11 7 -11 10 -2 10 7 0 10 5 6 11 -5 8 -9 7 -14 -1 -5 -8 -7 -4 -7 12 1 14
7 24 13 21 6 -2 14 3 18 12 3 9 2 14 -2 11 -5 -3 -9 1 -9 9 0 11 4 12 21 2 12
-6 25 -10 29 -9 5 1 6 -2 2 -7 -3 -6 -13 -7 -23 -4 -15 6 -15 5 -3 -10 12 -16
12 -17 -5 -10 -16 6 -17 4 -7 -8 9 -11 9 -19 2 -26 -7 -7 -7 -13 -1 -17 6 -3
13 3 17 14 3 11 11 20 17 20 6 0 3 -11 -6 -25 -20 -30 -21 -41 -2 -25 11 9 19
9 33 0 15 -9 14 -10 -7 -4 -22 6 -23 5 -11 -10 8 -9 9 -16 3 -16 -6 0 -12 5
-14 12 -3 9 -6 9 -12 0 -3 -6 2 -20 13 -31 11 -11 17 -22 13 -25 -11 -11 -9
-47 2 -43 6 2 10 12 8 22 -3 14 -1 15 11 4 13 -12 13 -15 -1 -23 -14 -8 -14
-10 3 -18 15 -6 12 -7 -9 -3 -26 6 -28 4 -16 -10 8 -10 21 -13 34 -9 14 4 18
3 11 -4 -5 -5 -19 -12 -30 -14 -11 -2 -19 -9 -18 -16 2 -6 -3 -9 -10 -6 -8 3
-14 -2 -14 -11 0 -18 2 -18 28 -4 11 5 17 14 14 19 -3 6 1 7 9 4 9 -3 16 -10
16 -16 0 -5 -4 -7 -10 -3 -5 3 -16 -8 -25 -25 -16 -31 -29 -41 -19 -15 4 8 2
15 -3 15 -5 0 -18 7 -29 16 -15 12 -16 15 -2 10 12 -3 16 0 13 14 -2 11 1 18
8 16 7 -1 8 -1 4 2 -4 2 -2 11 5 20 8 10 9 13 1 9 -6 -4 -14 -3 -18 2 -3 6
-13 7 -23 4 -14 -5 -13 -2 3 11 11 10 13 14 5 10 -8 -4 -12 -4 -8 1 4 4 2 15
-5 23 -10 13 -9 15 3 8 8 -4 6 -1 -4 8 -10 8 -24 13 -29 9 -6 -4 -8 0 -5 9 4
8 2 21 -3 29 -7 11 -9 11 -9 1 0 -8 -5 -10 -12 -6 -6 4 -4 -3 5 -17 19 -26 22
-49 7 -49 -5 0 -9 6 -7 12 1 7 -9 13 -23 14 -22 2 -22 2 -2 -3 12 -2 20 -9 17
-14 -4 -5 1 -12 9 -15 9 -3 13 -10 10 -15 -3 -5 0 -9 6 -9 6 0 10 6 9 13 -3
23 1 50 6 45 15 -14 13 -54 -3 -72 -9 -11 -12 -17 -6 -13 6 3 16 -5 22 -19 10
-20 9 -26 -3 -30 -8 -4 -15 -11 -15 -16 0 -6 6 -6 14 1 10 8 16 9 21 1 3 -5 2
-10 -4 -10 -5 0 -8 -13 -6 -30 3 -20 -2 -33 -13 -41 -15 -10 -15 -10 1 -5 10
3 21 6 23 6 2 0 4 7 4 15 0 8 5 15 11 15 6 0 9 -6 6 -12 -3 -7 -8 -21 -12 -30
-4 -11 -3 -18 5 -18 6 0 8 -5 4 -12 -6 -10 -5 -10 8 -1 8 7 18 10 21 6 4 -3
-1 -12 -11 -19 -15 -12 -15 -15 -2 -24 10 -6 11 -10 3 -10 -7 0 -13 -5 -13
-12 0 -9 3 -9 12 0 17 17 33 15 19 -2 -10 -11 -8 -16 7 -20 23 -8 25 -36 3
-37 -14 0 -14 -1 -1 -6 8 -3 19 -11 23 -17 6 -7 7 -5 4 6 -4 12 0 16 14 15 10
-1 19 -8 19 -15 0 -8 6 -12 15 -9 8 4 17 2 20 -2 10 -17 -29 -22 -41 -6 -10
13 -11 11 -11 -11 0 -16 2 -21 7 -14 6 9 9 9 14 -1 5 -11 7 -11 12 -1 5 10 9
10 22 0 11 -10 16 -10 19 -1 2 7 10 10 17 7 7 -3 19 3 27 12 11 14 11 16 1 10
-11 -7 -12 -5 -3 10 26 47 31 50 27 16 -2 -18 0 -35 5 -38 5 -3 9 0 9 6 0 6 5
8 10 5 12 -7 14 -26 3 -24 -5 1 -11 0 -15 -1 -5 -1 -16 -3 -25 -4 -10 -1 -31
-5 -48 -9 -29 -6 -84 -17 -115 -22 -8 -1 -22 -5 -30 -8 -8 -3 -49 -17 -90 -32
-226 -78 -317 -159 -321 -283 -1 -34 -5 -59 -10 -57 -4 3 -11 0 -15 -6 -4 -8
-3 -9 4 -5 11 7 17 -6 13 -28 -1 -4 5 -19 14 -33 10 -14 13 -33 9 -46 -6 -22
-6 -22 10 -2 15 19 16 19 9 1 -4 -13 -3 -17 5 -12 16 10 15 -6 0 -23 -11 -11
-10 -12 2 -5 20 11 41 14 35 5 -2 -5 7 -13 21 -20 15 -7 22 -16 18 -23 -5 -8
-2 -9 10 -5 14 6 16 3 11 -16 -7 -22 -7 -22 10 -2 9 11 14 14 10 8 -10 -21 4
-34 25 -23 25 13 37 -5 18 -27 -11 -14 -11 -16 2 -8 22 14 60 17 60 5 0 -5 8
-10 18 -10 15 0 15 -2 2 -11 -12 -8 -11 -9 5 -7 11 2 19 -2 18 -9 -2 -7 6 -10
19 -8 12 3 26 -2 33 -11 10 -14 13 -14 26 3 13 16 12 17 -2 5 -14 -10 -18 -10
-23 4 -9 23 -8 26 7 17 16 -10 36 -14 73 -16 27 -2 31 -5 28 -25 -4 -20 -2
-21 10 -10 7 7 12 16 10 20 -6 10 60 -16 68 -27 4 -5 5 -16 2 -24 -2 -8 7 -2
21 13 23 25 28 27 43 14 9 -8 24 -19 32 -23 13 -8 13 -7 0 10 -14 17 -14 18 5
8 11 -6 25 -8 32 -6 17 6 28 -18 12 -28 -10 -6 -10 -9 -2 -9 7 0 17 9 23 20
11 21 30 27 30 9 0 -5 -4 -8 -8 -5 -5 3 -9 -1 -9 -9 0 -8 5 -11 11 -7 6 3 21
7 34 8 12 0 25 4 29 8 4 4 -5 5 -21 2 -16 -3 -26 -2 -22 1 11 11 45 13 51 3 3
-5 13 -7 23 -4 14 5 14 4 2 -4 -8 -6 -18 -8 -22 -6 -4 3 -8 0 -8 -5 0 -17 18
-13 40 9 11 11 20 15 20 10 0 -12 22 -9 32 5 5 6 8 6 8 -2 0 -6 9 -10 20 -8
11 2 23 -1 26 -7 5 -7 2 -8 -5 -3 -10 6 -11 3 -2 -14 14 -25 23 -28 14 -4 -4
11 -3 14 5 9 7 -4 10 -2 6 7 -4 10 3 13 27 9 22 -3 30 -1 25 7 -9 14 16 11 26
-3 4 -6 14 -4 24 5 11 9 15 9 10 2 -4 -8 -2 -13 4 -13 6 0 9 -4 6 -9 -4 -5 5
-4 19 2 14 7 25 16 25 20 0 4 -10 3 -22 -3 -22 -11 -22 -10 -4 4 11 9 24 12
30 7 21 -16 45 -20 52 -9 5 7 2 8 -7 3 -12 -7 -12 -5 -1 6 11 12 14 12 22 -1
6 -9 5 -17 -1 -21 -7 -4 -5 -8 4 -12 12 -4 14 0 11 19 -3 17 -1 23 6 19 6 -4
18 1 26 11 12 17 13 17 8 2 -4 -11 -1 -18 6 -18 6 0 8 -5 4 -12 -6 -10 -4 -10
8 0 8 7 24 10 34 6 18 -5 18 -5 1 6 -9 6 -23 8 -30 5 -6 -4 -3 1 7 9 11 9 30
14 43 12 12 -3 25 0 28 5 4 5 11 9 18 9 6 0 2 -6 -8 -14 -18 -13 -18 -14 8 -9
15 3 25 9 22 13 -3 4 7 10 20 13 16 3 29 -1 34 -10 7 -13 9 -13 14 1 4 10 3
15 -3 11 -6 -3 -10 -1 -10 4 0 6 7 11 15 11 23 0 29 1 48 12 17 8 18 7 12 -14
-3 -12 -3 -18 2 -12 4 6 16 13 26 17 10 4 16 11 13 16 -3 5 1 14 9 21 13 10
19 10 34 -5 19 -16 19 -16 14 4 -3 13 -1 21 6 21 7 0 10 -4 7 -8 -2 -4 6 -8
19 -8 13 0 22 3 19 7 -6 11 19 27 38 24 11 -2 15 2 11 11 -3 8 -9 14 -15 14
-5 0 -6 -5 -2 -12 5 -7 3 -8 -5 -3 -9 5 -10 10 -2 18 7 7 15 6 26 -3 13 -11
14 -10 9 5 -5 13 -4 16 4 11 8 -4 12 0 12 11 0 15 2 16 10 3 8 -13 10 -12 10
3 0 11 9 21 20 24 11 3 20 10 20 15 0 5 -6 6 -12 2 -7 -5 -3 5 10 20 12 16 22
35 22 42 0 7 8 18 18 23 9 6 13 11 7 11 -5 0 -11 30 -13 66 -1 36 -8 77 -16
92 -28 55 -111 125 -186 158 -83 37 -220 85 -220 77 0 -3 -7 0 -15 7 -8 7 -22
10 -30 6 -8 -3 -15 -1 -15 5 0 6 -4 8 -9 5 -5 -3 -11 1 -15 9 -7 19 3 47 15
40 4 -3 6 -12 3 -19 -3 -7 2 -16 12 -20 13 -5 14 -3 6 6 -7 9 -6 19 4 32 8 11
14 16 14 12 0 -4 7 0 16 9 27 26 9 27 -19 1 -15 -14 -29 -21 -32 -16 -3 5 6
17 20 28 14 11 21 23 16 26 -5 3 -11 1 -13 -6 -3 -7 -7 -5 -11 6 -4 10 -3 15
3 11 6 -3 10 -1 10 6 0 10 3 10 11 2 17 -17 52 28 42 54 -6 16 -5 17 13 3 18
-14 18 -14 5 3 -18 23 3 54 26 36 11 -10 12 -8 7 5 -4 10 -13 15 -21 11 -10
-3 -13 -1 -10 9 7 19 -12 61 -35 75 -14 8 -16 7 -15 -10 1 -12 6 -18 15 -14 7
2 11 1 7 -4 -3 -5 -2 -11 2 -14 5 -2 2 -2 -5 0 -7 1 -10 -2 -7 -8 4 -6 13 -8
21 -5 8 3 14 0 14 -5 0 -7 -10 -9 -22 -6 -19 5 -21 4 -8 -6 22 -17 21 -31 -1
-45 -10 -7 -19 -8 -19 -3 0 6 5 13 10 16 18 11 -9 45 -35 43 -13 -1 -21 -6
-18 -11 3 -5 11 -6 18 -3 8 3 19 -2 25 -9 10 -12 9 -16 -2 -20 -8 -3 -15 -12
-16 -20 -1 -8 -3 -21 -4 -29 -1 -8 -9 -13 -20 -11 -12 3 -16 0 -12 -7 5 -7 2
-8 -7 -3 -12 7 -12 5 -1 -6 11 -12 14 -12 21 0 5 8 11 9 15 3 7 -12 -21 -24
-37 -16 -7 3 -4 -1 6 -9 11 -9 14 -18 8 -21 -5 -4 -13 -1 -17 5 -4 8 -9 7 -16
-2 -7 -10 -8 -8 -3 8 4 16 2 21 -12 19 -9 -2 -19 -9 -21 -16 -3 -7 0 -10 7 -6
6 4 11 2 11 -3 0 -6 -5 -11 -11 -11 -5 0 -7 -4 -4 -10 4 -6 -1 -7 -12 -4 -14
4 -15 3 -4 -4 9 -7 10 -12 2 -16 -6 -4 -11 -2 -11 5 0 7 -3 9 -6 6 -4 -3 -15
-2 -24 3 -13 7 -20 6 -24 -6 -5 -12 -1 -14 17 -9 18 5 19 4 7 -5 -13 -10 -12
-11 3 -6 18 6 62 -16 52 -26 -3 -2 2 -5 10 -5 11 0 12 4 3 14 -6 7 -8 16 -5
19 3 3 13 -6 23 -20 9 -15 14 -29 10 -33 -3 -3 -6 -1 -6 5 0 6 -9 9 -20 7 -12
-2 -29 5 -41 18 -15 17 -19 18 -14 5 4 -11 2 -18 -5 -18 -6 0 -8 5 -5 10 8 13
-8 13 -21 0 -6 -6 -15 -6 -24 0 -10 7 -11 10 -2 10 6 0 12 5 12 11 0 5 -5 7
-12 3 -6 -4 -4 3 5 16 13 19 14 27 4 39 -8 10 -8 13 0 8 6 -4 14 -1 17 5 3 7
4 4 3 -6 -1 -10 4 -21 12 -24 9 -3 11 0 6 8 -5 8 -4 11 2 7 14 -9 37 43 25 55
-6 6 -12 -1 -16 -17 -4 -15 -9 -25 -12 -23 -2 3 0 18 6 33 9 24 12 26 27 14
15 -12 16 -12 10 4 -4 11 -3 16 4 12 5 -4 7 -16 3 -27 -5 -16 -3 -18 7 -12 8
5 18 9 23 9 5 0 11 6 14 13 2 7 -2 10 -12 6 -9 -3 -16 -1 -16 5 0 6 3 10 8 10
20 -3 25 2 12 12 -13 9 -13 10 0 6 8 -2 14 -10 13 -16 -4 -17 14 -13 21 4 3 8
2 15 -2 15 -5 0 -15 6 -23 13 -8 6 -12 11 -10 10 10 -6 29 20 24 33 -4 10 0
15 8 14 28 -4 49 0 49 11 0 6 -9 8 -20 4 -12 -4 -20 -2 -20 5 0 6 4 9 8 6 15
-9 31 9 22 24 -7 10 -10 11 -10 3 0 -7 -5 -13 -10 -13 -6 0 -3 11 6 25 9 14
21 22 26 19 6 -4 9 -1 6 7 -3 8 -13 16 -23 17 -10 2 -15 0 -11 -6 4 -6 -1 -15
-10 -20 -9 -5 -15 -13 -14 -18 1 -5 -3 -9 -9 -10 -7 -2 -8 -1 -1 3 5 2 8 9 4
14 -3 5 2 12 10 15 9 3 13 10 10 15 -9 15 25 22 41 9 8 -7 15 -8 15 -2 0 5 -7
15 -15 22 -8 7 -15 19 -15 27 0 8 -5 11 -12 7 -7 -4 -8 -3 -4 5 9 14 26 5 26
-14 0 -23 15 -25 29 -3 11 18 11 20 -2 15 -19 -7 -33 23 -15 34 6 4 16 5 21 2
5 -3 7 0 5 8 -3 8 -11 13 -17 11 -7 -1 -10 2 -6 8 3 6 11 8 16 5 5 -4 9 -2 9
3 0 16 -13 22 -27 11 -7 -6 -13 -7 -13 -3 0 5 9 15 20 22 26 16 25 26 -2 41
l-23 11 23 -6 22 -5 -21 35 c-11 20 -18 36 -15 36 3 0 12 -13 21 -30 9 -16 20
-30 26 -30 8 0 8 4 0 13 -13 17 -5 27 17 21 14 -5 14 -4 -1 6 -9 6 -22 8 -27
5 -6 -3 -7 1 -4 9 3 9 10 13 15 10 5 -3 9 -1 9 5 0 5 -6 11 -12 14 -10 3 -10
7 1 20 18 23 30 21 28 -2 0 -11 -5 -17 -10 -14 -5 3 -1 -9 8 -26 14 -29 14
-32 0 -38 -13 -5 -14 -7 -3 -14 10 -7 10 -9 -2 -9 -13 0 -13 -1 0 -11 12 -8
10 -9 -7 -4 -17 5 -22 3 -17 -8 3 -8 16 -13 30 -11 13 1 24 -2 24 -6 0 -14
-18 -21 -25 -10 -12 20 -25 -1 -14 -22 9 -16 8 -19 -2 -13 -8 5 -10 4 -5 -3
13 -21 28 -13 21 11 -7 22 -7 22 8 2 15 -19 14 -21 -14 -35 -16 -9 -26 -19
-22 -24 4 -4 8 -13 8 -19 1 -7 6 -11 13 -10 7 2 12 -2 12 -8 0 -6 -7 -8 -16
-5 -10 4 -13 2 -8 -6 4 -6 3 -8 -2 -5 -6 3 -16 2 -24 -4 -13 -7 -12 -9 3 -9 9
0 17 -5 17 -11 0 -5 -4 -8 -9 -4 -6 3 -15 -3 -20 -14 -17 -30 -12 -39 5 -11
12 21 14 22 12 5 -2 -11 -7 -24 -13 -28 -6 -5 -1 -6 10 -2 11 3 16 3 13 -1 -9
-8 9 -44 22 -44 6 0 10 5 10 11 0 5 -4 7 -10 4 -5 -3 -10 -2 -10 3 0 6 7 12
15 16 8 3 15 0 15 -6 0 -6 3 -9 6 -5 3 3 -3 19 -15 35 -22 32 -28 62 -11 62 6
0 10 -7 8 -16 -4 -23 14 -27 37 -9 19 15 19 16 -3 5 -30 -15 -40 -5 -13 12 22
13 29 48 10 48 -5 0 -7 4 -4 10 4 6 -1 7 -11 3 -16 -6 -16 -5 -2 16 9 13 14
30 11 39 -4 10 -2 13 5 8 6 -3 16 3 22 14 7 13 7 20 0 20 -5 0 -10 -7 -10 -16
0 -8 -5 -12 -10 -9 -17 10 9 47 28 41 13 -5 13 -3 -2 9 -10 8 -22 12 -26 10
-4 -3 -14 3 -21 12 -12 14 -11 15 9 9 14 -5 22 -3 22 4 0 6 -4 8 -10 5 -5 -3
-10 1 -10 10 0 9 4 14 8 11 15 -9 31 9 22 24 -8 13 -10 12 -10 -3 0 -10 -5
-15 -10 -12 -6 4 -8 11 -5 16 4 5 1 9 -5 9 -6 0 -8 5 -5 10 4 6 10 8 14 6 11
-7 36 12 28 21 -5 4 -11 3 -15 -2 -10 -14 -32 -17 -32 -5 0 6 7 13 15 16 19 8
40 44 25 44 -5 0 -10 -7 -10 -15 0 -8 -4 -15 -10 -15 -5 0 -9 3 -9 8 3 20 -2
23 -18 11 -15 -13 -15 -12 -5 7 6 12 9 31 7 43 -3 14 0 21 8 18 7 -2 10 -14 9
-27 -3 -17 0 -21 11 -17 8 3 24 -1 36 -9 18 -13 20 -13 15 1 -3 8 -12 15 -19
15 -14 0 -15 17 0 40 8 13 7 13 -9 1 -13 -11 -20 -11 -28 -3 -9 9 -8 12 4 12
22 0 27 11 17 35 -9 19 -9 19 -5 -2 4 -23 -23 -37 -50 -26 -20 7 -7 23 14 17
15 -5 15 -4 -1 9 -11 9 -26 13 -35 9 -14 -5 -15 -3 -5 9 13 16 -4 49 -26 49
-6 0 -11 4 -11 8 0 20 32 6 48 -20 9 -15 20 -28 25 -28 4 0 -3 15 -16 33 -15
20 -23 41 -21 57 3 18 2 21 -5 10 -5 -8 -8 -17 -5 -21 2 -4 0 -10 -6 -14 -5
-3 -10 -1 -10 5 0 7 -8 9 -20 5 -22 -7 -29 18 -8 31 6 4 8 3 4 -4 -3 -5 0 -9
8 -8 15 2 56 48 56 62 0 4 -11 -6 -23 -24 -13 -17 -27 -29 -31 -25 -3 4 3 16
14 28 16 17 17 22 6 22 -8 0 -12 -5 -9 -10 4 -6 -1 -8 -11 -4 -10 4 -21 7 -24
7 -4 1 4 7 18 15 14 8 19 14 12 15 -7 0 -10 5 -6 12 4 7 3 8 -5 4 -6 -4 -8
-12 -5 -18 4 -6 3 -8 -3 -5 -10 6 -11 34 -2 52 3 6 5 26 4 47 0 20 3 34 7 32
3 -2 10 1 14 7 5 8 3 9 -6 4 -9 -5 -11 -1 -6 16 3 13 3 18 0 11 -3 -6 -10 -9
-16 -6 -5 3 -2 15 9 27 l18 22 -22 -19 c-18 -15 -20 -22 -12 -33 9 -9 9 -13 0
-13 -10 0 -15 15 -8 23 1 1 -13 17 -31 35 -18 18 -30 32 -26 32 4 0 -5 9 -19
20 -17 14 -24 27 -20 38 3 9 3 14 -2 10 -7 -7 -32 20 -75 81 -13 19 -19 31
-12 27 7 -4 12 -2 12 3 0 6 -9 11 -20 11 -11 0 -20 6 -20 14 0 9 8 13 23 10
20 -4 20 -4 2 4 -11 5 -26 7 -34 4 -10 -4 -13 -1 -8 11 5 14 2 16 -18 11 -16
-4 -25 -2 -25 6 0 6 5 8 10 5 6 -3 10 -2 10 3 0 6 -11 9 -24 8 -16 -1 -21 -5
-15 -12 6 -7 -8 -10 -42 -11 -28 0 -45 3 -38 8 7 4 14 15 15 23 3 18 -2 21
-11 6z m35 -87 c0 -6 -9 -10 -20 -8 -11 2 -23 -1 -26 -7 -4 -7 -2 -8 4 -4 7 4
12 1 12 -6 0 -8 3 -9 8 -3 9 13 46 19 38 6 -3 -5 0 -16 8 -24 8 -8 12 -19 8
-23 -4 -5 0 -3 8 4 12 11 13 14 1 21 -9 6 -10 11 -2 15 18 11 32 -3 22 -22 -4
-9 -6 -23 -3 -31 3 -8 0 -11 -7 -7 -6 4 -11 2 -11 -3 0 -6 5 -11 11 -11 8 0 7
-6 -2 -17 -8 -9 -9 -14 -4 -11 7 4 11 -16 11 -55 1 -43 -1 -55 -7 -39 -8 22
-29 31 -29 11 0 -5 5 -7 10 -4 6 3 10 -1 10 -10 0 -19 84 -107 94 -98 8 9 65
11 64 3 -2 -20 4 -21 17 -4 11 14 14 15 9 3 -3 -10 0 -20 7 -25 7 -4 10 -3 5
4 -7 12 4 21 34 27 11 2 18 0 15 -5 -7 -12 5 -41 16 -35 4 3 6 12 3 19 -3 7 3
17 13 20 14 6 15 4 6 -5 -6 -6 -9 -17 -7 -23 3 -7 -7 -18 -21 -24 -15 -7 -24
-8 -20 -3 3 5 0 13 -6 17 -7 4 -9 3 -6 -3 3 -5 0 -10 -8 -10 -8 0 -11 5 -7 11
3 6 -6 3 -21 -7 -28 -18 -36 -11 -14 12 8 10 8 12 0 7 -6 -3 -14 -2 -18 3 -8
14 -35 2 -35 -15 0 -8 -4 -14 -9 -14 -5 0 -8 8 -7 17 0 10 -3 18 -9 18 -5 0
-15 4 -21 8 -12 7 -27 -7 -77 -68 l-24 -29 0 26 c0 20 4 25 16 21 14 -4 14 -3
1 6 -18 13 -42 -12 -33 -35 3 -8 0 -14 -6 -14 -6 0 -12 6 -12 13 -1 6 -2 18
-3 26 -1 16 -36 25 -36 9 0 -6 6 -8 14 -5 9 4 14 -2 14 -17 0 -15 -7 -22 -19
-22 -10 0 -18 6 -16 12 1 7 -2 13 -8 13 -5 0 -9 -7 -7 -15 2 -8 -2 -14 -8 -14
-10 0 -14 13 -11 40 2 13 0 13 -8 1 -5 -8 -6 -21 -3 -30 5 -13 3 -14 -10 -3
-13 10 -17 10 -21 -2 -4 -9 -2 -18 4 -21 5 -4 7 -11 4 -16 -4 -5 -2 -9 4 -9
18 0 21 18 5 24 -9 4 -14 9 -11 12 3 3 12 2 19 -2 21 -13 38 -13 39 -1 0 7 4
3 9 -8 7 -17 9 -17 9 -2 1 9 6 17 12 17 5 0 7 -5 3 -12 -4 -7 -3 -8 4 -4 7 4
12 1 12 -6 0 -10 3 -9 10 2 5 8 12 11 16 7 4 -4 13 -2 21 4 9 9 13 8 13 0 0
-6 -5 -11 -11 -11 -5 0 -7 -5 -4 -10 10 -16 27 0 22 21 -3 10 1 23 9 30 11 9
13 6 10 -20 -2 -17 1 -28 6 -25 5 3 4 -3 -4 -15 -14 -23 -39 -37 -35 -19 1 6
-4 13 -11 15 -7 3 -12 1 -11 -4 3 -18 -1 -33 -10 -33 -10 0 -9 26 2 36 4 4 7
12 7 18 -1 6 -9 1 -19 -11 -16 -19 -39 -28 -65 -24 -5 0 -3 8 4 16 10 12 10
15 0 15 -6 0 -14 -9 -17 -19 -3 -11 -12 -22 -21 -26 -14 -5 -15 -4 -4 6 17 18
15 34 -3 19 -12 -10 -21 -10 -41 -1 -29 13 -37 14 -30 3 2 -4 0 -14 -5 -22 -7
-11 -8 -7 -5 13 3 15 0 27 -5 27 -5 0 -9 -9 -9 -19 0 -21 -26 -36 -36 -20 -3
6 -13 8 -21 5 -8 -3 -23 -1 -33 4 -15 8 -21 6 -29 -7 -6 -10 -10 -13 -11 -8 0
18 18 38 28 31 6 -3 13 -2 16 3 8 13 -23 23 -41 13 -8 -5 -14 -12 -14 -15 3
-22 -1 -28 -14 -23 -8 3 -15 0 -15 -7 0 -8 -3 -8 -8 -2 -13 20 -35 10 -38 -17
-3 -28 22 -59 34 -42 4 5 16 10 27 12 16 2 17 1 5 -7 -8 -6 -11 -11 -5 -11 5
0 4 -5 -3 -12 -16 -16 -16 -33 1 -21 15 12 48 13 41 1 -3 -4 -3 -8 0 -8 2 0
12 -3 21 -7 16 -6 17 -4 0 23 -15 27 -15 28 0 7 10 -13 22 -23 27 -23 6 0 4 8
-3 17 -13 15 -11 15 13 -1 16 -10 29 -13 32 -7 8 12 46 10 46 -2 0 -4 4 -5 10
-2 6 4 7 -1 3 -11 -4 -12 -3 -15 6 -10 6 4 23 0 36 -8 14 -9 25 -13 25 -8 0
18 -72 68 -92 64 -3 -1 -8 4 -11 12 -3 8 2 12 16 11 12 -2 21 -8 19 -14 -1 -6
4 -11 11 -11 18 0 51 -29 66 -57 6 -13 16 -23 22 -23 6 0 7 6 3 13 -4 6 -3 9
1 5 5 -5 19 9 32 30 14 20 22 28 18 17 -11 -33 -11 -37 3 -42 7 -3 10 1 6 10
-3 8 -1 18 5 22 7 4 8 -1 4 -12 -6 -16 -5 -16 10 -4 9 7 14 18 10 24 -3 6 -1
7 5 3 7 -4 12 -1 12 6 0 8 4 7 11 -4 12 -22 36 -13 54 21 8 15 14 20 15 11 0
-9 -6 -22 -12 -29 -11 -11 -9 -12 10 -6 13 4 22 2 22 -4 0 -6 5 -11 11 -11 5
0 7 5 4 10 -3 6 -1 10 5 10 7 0 9 -7 6 -16 -3 -8 -2 -13 3 -9 5 3 11 2 14 -2
2 -5 2 -2 0 6 -2 7 2 20 8 28 10 12 7 13 -19 8 -17 -3 -34 -1 -37 5 -4 6 1 7
12 3 16 -6 17 -5 3 13 -14 19 -14 19 7 1 16 -14 22 -15 27 -5 5 10 7 10 12 1
4 -9 11 -10 25 -3 13 8 19 7 19 0 0 -6 5 -8 11 -4 14 9 -9 24 -27 17 -15 -6
-28 13 -14 22 6 4 5 11 -3 20 -9 9 -16 10 -25 2 -9 -7 -16 -7 -20 -1 -4 6 -19
11 -34 11 -51 2 -52 2 -34 22 10 10 25 18 34 16 9 -1 22 2 29 7 7 5 13 5 17 0
7 -11 -21 -25 -34 -17 -5 3 -11 1 -15 -5 -3 -5 -1 -11 4 -11 6 -1 17 -2 24 -3
6 -1 15 3 19 9 5 6 8 6 8 -2 0 -6 9 -10 20 -8 13 3 18 0 14 -7 -4 -7 -2 -8 5
-4 6 4 8 12 5 18 -5 8 -1 9 10 5 10 -4 15 -3 11 3 -7 12 5 13 20 2 18 -13 17
-34 -2 -28 -20 6 -37 -3 -40 -21 -2 -6 6 -11 17 -10 22 1 26 13 8 20 -10 4
-10 6 0 6 7 1 15 -6 18 -14 4 -8 10 -12 15 -9 5 3 7 9 4 14 -3 5 -1 11 5 15 6
4 7 12 3 18 -4 7 0 6 10 -2 9 -7 17 -9 17 -3 0 5 -7 13 -16 16 -15 6 -15 8 1
26 17 18 14 25 -8 21 -5 -1 -7 4 -5 11 3 7 9 13 14 13 5 0 14 3 20 7 6 4 11 1
11 -7 0 -8 -4 -12 -9 -9 -12 8 -10 -10 3 -23 7 -7 8 -17 3 -25 -5 -7 -9 -34
-9 -59 -1 -45 -27 -90 -43 -75 -3 4 -1 11 6 15 9 6 7 12 -8 26 -11 10 -20 13
-20 7 0 -6 4 -13 10 -17 5 -3 7 -12 4 -19 -3 -8 0 -17 5 -21 6 -3 9 -11 6 -16
-4 -5 1 -9 9 -9 21 0 31 -21 15 -30 -7 -5 -16 -7 -20 -4 -4 2 -12 -3 -19 -11
-10 -12 -10 -18 0 -30 8 -9 8 -15 2 -15 -6 0 -14 10 -18 22 l-6 21 -14 -24
c-7 -13 -14 -19 -14 -14 0 6 -10 -1 -20 -14 -13 -15 -20 -18 -20 -9 0 8 11 21
25 28 16 9 22 17 16 23 -6 6 -16 4 -26 -7 -20 -20 -25 -20 -53 0 -12 8 -22 12
-22 7 1 -13 27 -43 32 -37 4 3 9 1 12 -4 3 -6 -1 -9 -10 -8 -8 1 -19 8 -23 15
-5 7 -12 13 -17 14 -5 1 -7 9 -6 16 3 13 1 13 -13 1 -16 -13 -15 -15 5 -32 12
-10 18 -18 12 -18 -5 0 -15 7 -22 15 -11 13 -14 13 -26 -2 -11 -15 -15 -16
-26 -4 -9 10 -9 12 -1 7 8 -4 23 4 38 21 32 37 32 53 0 23 -14 -13 -25 -20
-25 -16 0 4 -12 -5 -27 -19 -15 -14 -32 -25 -36 -25 -5 0 6 12 23 26 17 15 28
29 25 32 -2 3 -14 -3 -25 -13 -11 -10 -33 -20 -48 -21 -24 -3 -25 -1 -10 10
10 7 14 17 10 21 -4 5 -2 5 4 2 7 -4 17 -1 23 7 10 11 7 14 -14 12 -14 0 -25
-4 -25 -8 0 -5 -9 -8 -21 -8 -11 0 -18 -4 -15 -9 3 -5 -1 -12 -10 -15 -9 -3
-12 -11 -8 -18 6 -10 5 -10 -7 -1 -12 10 -20 9 -37 -3 -13 -9 -22 -11 -22 -5
0 6 5 11 11 11 15 0 3 16 -32 41 -31 21 -31 22 -25 2 6 -18 2 -21 -28 -20 -19
1 -32 5 -29 11 4 5 -1 7 -10 3 -11 -4 -14 -2 -10 9 4 10 0 12 -11 8 -10 -4
-16 -1 -17 7 -1 8 -2 20 -3 28 0 8 -6 16 -12 18 -9 3 -11 -30 -3 -47 1 -3 2
-12 3 -20 1 -8 12 -17 26 -21 23 -6 23 -7 3 -8 -12 -1 -25 4 -28 10 -5 7 -13
5 -25 -6 -11 -10 -25 -15 -32 -12 -10 4 -9 6 2 6 8 1 16 11 16 25 1 16 -3 23
-15 22 -11 -1 -15 6 -13 23 1 14 -1 22 -4 18 -4 -3 -15 -2 -25 3 -12 7 -20 7
-24 0 -4 -6 -11 -8 -16 -5 -5 4 -9 1 -9 -6 0 -6 8 -9 19 -6 28 7 49 -9 33 -25
-6 -6 -12 -19 -12 -27 0 -12 2 -12 13 2 8 12 16 14 27 7 8 -5 11 -12 7 -17 -5
-4 -12 -1 -16 6 -7 10 -11 8 -16 -9 -6 -20 -9 -21 -17 -7 -5 9 -8 24 -6 33 2
9 -3 19 -10 21 -7 3 -10 -1 -6 -10 3 -8 0 -18 -6 -22 -9 -6 -9 -10 1 -17 11
-8 11 -9 -1 -5 -8 2 -13 11 -11 18 2 8 3 21 2 29 -1 8 -2 24 -3 36 0 20 -38
54 -38 35 0 -6 4 -12 9 -16 6 -3 9 -13 9 -23 0 -9 1 -24 4 -32 3 -8 3 -12 1
-7 -3 4 -9 5 -13 2 -5 -3 -9 3 -8 12 0 10 -3 29 -7 43 -11 41 -15 106 -6 91 6
-9 11 -10 15 -2 4 6 1 14 -7 17 -9 3 -14 17 -13 35 1 17 -1 32 -5 35 -4 2 -6
15 -3 29 2 13 0 26 -6 30 -6 4 -5 15 2 31 10 20 9 27 -3 35 -8 5 -9 9 -3 9 6
0 16 12 23 28 l12 27 -19 -23 -18 -23 -2 33 c-1 18 -4 48 -6 66 -5 33 2 40 21
21 7 -7 12 -6 17 6 3 9 2 14 -3 10 -21 -12 -42 7 -37 35 2 15 0 33 -4 40 -9
15 18 72 31 65 5 -4 9 -2 9 2 0 5 124 9 275 9 211 0 275 -3 275 -13z m35 -2
c-3 -11 0 -10 10 3 11 14 15 16 15 5 0 -8 -9 -20 -21 -27 -12 -8 -18 -9 -15
-3 4 5 2 12 -4 16 -15 9 -12 22 5 22 10 0 14 -6 10 -16z m72 -60 c-10 -12 -9
-14 7 -8 25 10 50 -22 33 -41 -9 -11 -7 -13 9 -10 13 2 19 -2 18 -14 -1 -12 5
-18 19 -18 15 0 18 -3 10 -11 -8 -8 -17 -8 -32 1 -12 6 -21 7 -20 3 3 -19 -2
-27 -9 -15 -5 7 -16 10 -26 6 -14 -5 -15 -9 -4 -15 8 -5 8 -9 2 -9 -6 0 -11
-12 -11 -27 0 -16 2 -22 4 -16 3 9 10 10 22 3 10 -5 21 -6 25 -3 3 3 6 1 6 -6
0 -7 -9 -9 -26 -5 -19 5 -25 4 -20 -5 4 -6 12 -9 17 -6 5 3 6 -1 3 -10 -11
-27 -51 28 -44 60 7 31 6 41 -4 47 -8 6 -8 8 1 8 7 0 10 10 7 24 -2 13 1 26 8
29 8 3 14 -5 14 -19 1 -13 -1 -22 -5 -19 -4 2 -8 -2 -8 -10 0 -8 5 -11 11 -7
6 3 17 7 25 9 7 1 19 7 25 14 8 9 8 10 -1 5 -18 -10 -45 5 -39 21 4 9 -1 17
-14 20 -14 4 -18 12 -16 27 3 11 5 26 5 31 1 6 5 3 11 -5 6 -9 5 -20 -3 -29z
m29 -137 c-3 -7 0 -16 7 -20 7 -4 9 -4 5 1 -4 4 -3 15 2 24 18 34 84 9 111
-41 7 -14 5 -16 -12 -13 -14 3 -23 -2 -26 -13 -3 -13 -15 -18 -44 -19 -42 -2
-53 11 -18 22 16 5 18 9 8 21 -6 8 -14 12 -17 10 -2 -3 -13 -1 -24 5 -14 8
-17 14 -9 23 6 7 7 17 3 21 -4 5 -1 5 6 1 7 -5 11 -14 8 -22z m158 -75 c3 -2
-10 -5 -29 -6 -19 0 -35 3 -35 7 0 8 56 8 64 -1z m-161 -72 c4 3 7 2 7 -3 0
-5 -9 -15 -21 -22 -19 -12 -20 -12 -14 10 4 13 6 21 4 18 -2 -3 -12 -15 -22
-26 -17 -21 -17 -21 8 -18 17 1 25 -2 22 -9 -2 -7 -11 -11 -19 -9 -8 1 -15 -4
-15 -12 0 -8 6 -12 14 -9 7 3 13 1 13 -4 0 -10 -40 -15 -41 -5 0 4 -2 18 -4
32 -3 31 33 74 50 60 7 -5 15 -7 18 -3z m63 -32 c2 -23 -14 -30 -28 -11 -3 5
-5 -2 -5 -17 1 -14 4 -24 6 -21 2 2 10 -4 18 -14 8 -9 12 -12 9 -6 -3 7 0 11
7 10 6 0 14 4 16 9 2 6 11 16 20 23 9 8 10 10 2 6 -9 -5 -12 -3 -7 4 4 7 2 12
-3 12 -10 0 -16 -21 -12 -42 1 -10 -3 -10 -23 -2 -9 3 -16 10 -16 16 0 5 4 7
9 3 6 -3 15 4 21 15 14 26 55 21 55 -6 0 -11 6 -18 15 -16 9 1 6 -6 -9 -18
-12 -11 -27 -17 -32 -14 -6 3 -20 -1 -33 -9 -15 -10 -28 -12 -37 -6 -8 5 -10
9 -5 9 5 0 1 10 -10 22 -10 12 -13 18 -7 14 9 -5 11 -2 7 9 -9 23 -14 16 -23
-35 -1 -3 -5 2 -11 10 -5 9 -5 19 1 27 6 7 8 17 5 22 -4 6 5 9 25 6 23 -3 29
0 25 11 -3 8 0 14 7 14 7 0 13 -11 13 -25z m164 -94 c0 -5 -7 -11 -14 -14 -10
-4 -13 -1 -9 9 6 15 23 19 23 5z m4 -87 c-2 -18 2 -24 11 -20 17 6 40 -19 25
-29 -15 -9 -1 -27 17 -20 13 4 14 3 3 -10 -10 -12 -10 -16 1 -20 14 -5 23 -65
10 -65 -4 0 -7 -9 -8 -20 -2 -22 7 -26 24 -9 9 9 11 7 8 -7 -1 -11 -8 -18 -15
-16 -7 1 -22 -4 -35 -12 -21 -14 -23 -13 -34 10 -9 20 -8 26 4 30 8 4 12 11 8
18 -3 6 -1 6 8 -1 7 -7 18 -13 24 -13 5 1 -1 10 -14 20 -24 20 -42 26 -40 13
1 -5 1 -15 0 -23 -1 -12 -4 -11 -12 3 -6 9 -14 15 -20 12 -5 -3 -6 1 -2 10 3
10 8 12 12 7 4 -7 12 -6 23 2 18 13 15 27 -5 22 -7 -2 -9 -1 -4 1 15 9 6 22
-12 18 -15 -3 -18 0 -14 13 4 10 8 12 11 4 2 -7 8 -9 13 -6 6 3 6 11 -2 20 -6
7 -15 11 -20 8 -5 -3 -4 6 3 20 6 14 16 26 22 26 6 0 4 5 -4 10 -13 9 -13 11
0 20 8 5 16 10 16 10 1 0 0 -12 -2 -26z m-700 1 c-4 -8 -11 -15 -16 -15 -6 0
-5 6 2 15 7 8 14 15 16 15 2 0 1 -7 -2 -15z m71 -6 c-4 -5 -2 -9 4 -9 5 0 12
6 14 13 4 9 6 9 6 0 2 -20 -16 -24 -44 -9 -23 12 -24 15 -8 18 22 5 35 0 28
-13z m145 -23 c0 -12 -5 -7 -19 24 -11 24 -11 24 3 6 9 -11 16 -24 16 -30z
m36 35 c10 8 14 8 14 0 0 -6 -5 -11 -11 -11 -5 0 -7 -5 -4 -11 4 -6 -2 -5 -13
2 -12 7 -18 18 -15 23 4 6 8 5 11 -2 3 -10 7 -10 18 -1z m91 0 c7 7 13 7 13 3
0 -5 -9 -15 -21 -22 -12 -8 -18 -9 -14 -3 3 6 1 11 -4 11 -6 0 -11 5 -11 12 0
9 3 9 12 0 8 -8 15 -9 25 -1z m40 2 c-4 -3 -2 -12 4 -20 7 -8 8 -13 1 -13 -12
0 -23 26 -15 34 4 3 9 6 11 6 3 0 2 -3 -1 -7z m33 3 c0 -3 -4 -8 -10 -11 -5
-3 -10 -1 -10 4 0 6 5 11 10 11 6 0 10 -2 10 -4z m-140 -33 c0 -5 -7 -17 -16
-28 -13 -17 -16 -18 -24 -5 -13 20 -12 39 1 20 9 -13 12 -13 22 3 13 19 17 21
17 10z m357 -8 c0 -8 -4 -15 -9 -15 -10 0 -11 14 -1 23 9 10 10 9 10 -8z
m-817 -96 c0 -6 -4 -7 -10 -4 -5 3 -10 11 -10 16 0 6 5 7 10 4 6 -3 10 -11 10
-16z m318 -14 c-3 -3 -9 2 -12 12 -6 14 -5 15 5 6 7 -7 10 -15 7 -18z m-475
-10 c-3 -9 -8 -14 -10 -11 -3 3 -2 9 2 15 9 16 15 13 8 -4z m244 -17 c-3 -7
-5 -2 -5 12 0 14 2 19 5 13 2 -7 2 -19 0 -25z m85 18 c7 4 8 2 4 -4 -4 -6 -13
-9 -21 -6 -8 4 -12 11 -8 17 5 8 8 7 11 -1 2 -7 9 -9 14 -6z m121 -4 c-4 -10
-9 -10 -22 0 -9 7 -17 13 -19 14 -2 1 8 1 21 0 15 0 23 -6 20 -14z m134 -4
c-3 -8 -6 -5 -6 6 -1 11 2 17 5 13 3 -3 4 -12 1 -19z m327 -5 c3 -11 1 -25 -3
-32 -4 -6 -8 4 -8 24 0 37 5 41 11 8z m256 23 c0 -3 -4 -8 -10 -11 -5 -3 -10
-1 -10 4 0 6 5 11 10 11 6 0 10 -2 10 -4z m-963 -13 c-9 -8 -47 -11 -47 -4 0
5 11 9 25 9 14 0 24 -2 22 -5z m193 -19 c0 -2 -9 0 -20 6 -11 6 -20 13 -20 16
0 2 9 0 20 -6 11 -6 20 -13 20 -16z m-127 1 c-3 -9 -8 -14 -10 -11 -3 3 -2 9
2 15 9 16 15 13 8 -4z m605 1 c-7 -8 -15 -12 -17 -11 -5 6 10 25 20 25 5 0 4
-6 -3 -14z m-785 -27 c-4 -16 -8 -17 -14 -7 -5 7 -4 14 1 16 6 2 7 9 4 14 -4
6 -2 8 4 5 5 -4 8 -16 5 -28z m65 6 c-3 -3 -9 2 -12 12 -6 14 -5 15 5 6 7 -7
10 -15 7 -18z m55 -5 c-3 -12 -6 -19 -7 -18 -1 2 -8 11 -15 21 -12 15 -12 17
4 11 14 -6 16 -4 10 6 -5 8 -4 11 3 7 5 -4 8 -16 5 -27z m96 16 c9 -11 9 -16
-1 -22 -7 -4 -10 -4 -6 1 4 4 3 14 -3 22 -6 7 -9 13 -6 13 2 0 10 -6 16 -14z
m436 4 c-3 -5 -12 -10 -18 -10 -7 0 -6 4 3 10 19 12 23 12 15 0z m-124 -17
c13 -16 12 -17 -3 -4 -10 7 -18 15 -18 17 0 8 8 3 21 -13z m32 2 c-3 -9 -8
-14 -10 -11 -3 3 -2 9 2 15 9 16 15 13 8 -4z m370 1 c3 -8 0 -17 -7 -19 -10
-4 -12 1 -9 14 6 23 9 24 16 5z m-733 0 c0 -2 -8 -10 -17 -17 -16 -13 -17 -12
-4 4 13 16 21 21 21 13z m100 -2 c0 -8 -19 -13 -24 -6 -3 5 1 9 9 9 8 0 15 -2
15 -3z m541 -17 c-10 -9 -11 -8 -5 6 3 10 9 15 12 12 3 -3 0 -11 -7 -18z
m-851 -32 c0 -5 -5 -3 -10 5 -5 8 -10 20 -10 25 0 6 5 3 10 -5 5 -8 10 -19 10
-25z m97 12 c0 -8 -6 -14 -14 -14 -9 0 -10 4 -2 14 6 7 12 13 14 13 1 0 2 -6
2 -13z m68 -7 c-3 -5 -12 -10 -18 -10 -7 0 -6 4 3 10 19 12 23 12 15 0z m659
2 c3 -5 -1 -9 -9 -9 -8 0 -12 4 -9 9 3 4 7 8 9 8 2 0 6 -4 9 -8z m53 -7 c0 -8
-4 -12 -9 -9 -4 3 -8 9 -8 15 0 5 4 9 8 9 5 0 9 -7 9 -15z m77 4 c-2 -4 1 -9
8 -11 7 -3 4 -7 -8 -10 -14 -3 -20 0 -20 12 0 9 6 17 13 17 7 0 10 -4 7 -8z
m-1049 -57 c2 -13 -1 -21 -8 -19 -7 1 -11 -3 -10 -10 2 -7 -4 -10 -12 -7 -8 4
-15 10 -15 16 0 5 5 6 10 3 10 -6 13 3 13 38 -1 24 16 8 22 -21z m1082 16 c-3
-8 -6 -5 -6 6 -1 11 2 17 5 13 3 -3 4 -12 1 -19z m-196 -5 c13 -16 12 -17 -3
-4 -10 7 -18 15 -18 17 0 8 8 3 21 -13z m263 1 c3 -8 2 -12 -4 -9 -6 3 -10 10
-10 16 0 14 7 11 14 -7z m-194 -8 c0 -3 -4 -8 -10 -11 -5 -3 -10 -1 -10 4 0 6
5 11 10 11 6 0 10 -2 10 -4z m89 -10 c9 -11 9 -16 -1 -22 -7 -4 -10 -4 -6 1 4
4 3 14 -3 22 -6 7 -9 13 -6 13 2 0 10 -6 16 -14z m-155 -22 c3 -8 2 -12 -4 -9
-6 3 -10 10 -10 16 0 14 7 11 14 -7z m-654 -14 c0 -5 -2 -10 -4 -10 -3 0 -8 5
-11 10 -3 6 -1 10 4 10 6 0 11 -4 11 -10z m717 3 c-4 -3 -2 -11 3 -18 7 -8 5
-12 -4 -12 -8 0 -12 7 -11 16 5 22 4 21 12 21 3 0 3 -3 0 -7z m-462 -22 c3 -5
2 -12 -3 -15 -5 -3 -9 1 -9 9 0 17 3 19 12 6z m681 -3 c5 4 5 3 1 -2 -12 -15
-34 -15 -34 0 0 9 4 11 12 4 7 -5 16 -6 21 -2z m-1082 -14 c3 -8 2 -12 -4 -9
-6 3 -10 10 -10 16 0 14 7 11 14 -7z m981 -4 c3 -6 -1 -7 -9 -4 -18 7 -21 14
-7 14 6 0 13 -4 16 -10z m-15 -16 c0 -8 -19 -13 -24 -6 -3 5 1 9 9 9 8 0 15
-2 15 -3z m-1047 -40 c-4 -12 -8 -13 -14 -3 -9 15 -2 32 11 24 5 -3 6 -13 3
-21z m1047 -14 c0 -5 -2 -10 -4 -10 -3 0 -8 5 -11 10 -3 6 -1 10 4 10 6 0 11
-4 11 -10z m82 -22 c-10 -10 -8 -16 9 -29 12 -9 19 -21 15 -28 -11 -17 -24
-13 -22 7 0 9 -4 16 -10 15 -14 -2 -14 30 0 39 17 12 21 9 8 -4z m-1009 -18
c3 -11 1 -18 -4 -14 -5 3 -9 12 -9 20 0 20 7 17 13 -6z m884 -25 c0 -8 -4 -12
-9 -9 -5 3 -6 10 -3 15 9 13 12 11 12 -6z m-978 -34 c2 -1 -2 -7 -8 -14 -6 -8
-8 -17 -4 -20 3 -4 2 -7 -4 -7 -5 0 -15 10 -20 23 -10 21 -9 23 11 21 11 -1
23 -3 25 -3z m108 -12 c-9 -6 -15 -14 -12 -20 4 -5 1 -9 -4 -9 -6 0 -11 4 -11
8 0 12 22 32 35 32 5 0 2 -5 -8 -11z m982 -38 c8 -14 7 -20 -5 -25 -8 -3 -12
-2 -9 3 3 5 1 12 -5 16 -6 4 -8 11 -5 16 9 13 13 11 24 -10z m-987 -15 c7 4 8
2 4 -5 -9 -13 -26 -5 -25 12 0 9 2 8 6 -1 2 -6 10 -9 15 -6z m3 -22 c14 5 15
-18 0 -31 -4 -4 -5 -2 -1 5 4 6 3 12 -3 12 -5 0 -15 2 -23 5 -9 4 -14 -3 -16
-22 -1 -27 -1 -27 13 -9 11 14 15 16 15 5 0 -8 -9 -20 -20 -27 -12 -7 -18 -17
-15 -21 3 -5 -1 -12 -7 -14 -10 -4 -10 -6 -1 -6 7 -1 17 8 23 19 6 11 18 20
26 20 9 0 12 5 8 12 -4 6 -3 8 4 4 5 -3 13 0 15 6 4 9 6 10 6 1 1 -6 -4 -15
-9 -18 -7 -4 -7 -13 0 -26 6 -11 15 -17 21 -14 5 4 9 1 9 -4 0 -13 -17 -14
-24 -2 -3 5 -17 9 -31 9 -20 0 -23 -3 -14 -14 6 -7 16 -11 24 -8 7 3 28 -8 47
-25 18 -17 27 -31 21 -31 -7 0 -13 5 -13 10 0 18 -16 10 -17 -9 -1 -14 4 -18
22 -16 30 3 50 -9 40 -24 -5 -9 -11 -9 -23 1 -13 11 -14 11 -7 -1 14 -24 15
-63 0 -58 -7 3 -18 0 -25 -6 -10 -9 -12 -8 -7 5 6 18 -15 42 -27 31 -4 -4 -4
0 -1 9 5 13 2 16 -12 13 -20 -3 -45 7 -44 19 3 20 0 26 -9 21 -5 -3 -10 -1
-10 5 0 7 7 9 16 6 10 -4 13 -2 8 6 -4 6 -3 8 3 5 6 -4 16 -1 22 7 9 10 7 17
-5 27 -15 12 -16 11 -9 -11 7 -22 6 -23 -9 -11 -9 8 -19 11 -23 7 -3 -3 0 -6
7 -6 7 0 11 -3 8 -6 -4 -3 -16 0 -29 6 -20 11 -21 13 -5 22 13 8 15 13 5 24
-6 7 -15 12 -19 9 -5 -3 -11 -1 -15 5 -3 5 -2 10 3 10 5 0 9 10 8 23 -1 14 -7
22 -19 21 -19 -2 -21 4 -8 25 5 7 14 10 20 7 6 -4 9 -11 6 -16 -3 -5 -1 -11 4
-15 6 -3 18 6 27 19 13 21 19 24 36 15 11 -6 26 -8 33 -5z m858 -9 c-3 -9 -8
-14 -10 -11 -3 3 -2 9 2 15 9 16 15 13 8 -4z m82 -120 c-2 -29 -19 -50 -34
-41 -10 6 -7 43 4 55 4 3 4 -7 1 -23 -3 -16 -3 -27 -1 -25 2 2 4 9 5 14 2 11
19 45 23 45 2 0 2 -11 2 -25z m-870 5 c3 -5 1 -10 -4 -10 -6 0 -11 5 -11 10 0
6 2 10 4 10 3 0 8 -4 11 -10z m29 -18 c3 -5 -1 -9 -9 -9 -8 0 -12 4 -9 9 3 4
7 8 9 8 2 0 6 -4 9 -8z m17 -39 c13 -17 13 -17 -6 -3 -11 8 -22 16 -24 17 -2
2 0 3 6 3 6 0 17 -8 24 -17z m39 -37 c0 -3 -4 -8 -10 -11 -5 -3 -10 -1 -10 4
0 6 5 11 10 11 6 0 10 -2 10 -4z m711 -18 c-12 -10 -21 -24 -21 -30 0 -6 -8
-4 -18 5 -15 13 -21 14 -32 4 -7 -6 -5 -1 5 13 13 19 28 26 52 27 l34 1 -20
-20z m329 -683 c0 -2 -7 -8 -15 -15 -12 -10 -15 -10 -15 2 0 8 7 15 15 15 8 0
15 -1 15 -2z m-1352 -71 c2 -1 -1 -5 -7 -8 -5 -4 -15 4 -22 16 -12 22 -11 22
7 8 10 -8 20 -15 22 -16z m1227 16 c3 -5 1 -10 -4 -10 -6 0 -11 5 -11 10 0 6
2 10 4 10 3 0 8 -4 11 -10z"/>
<path d="M854 2334 c-18 -14 -18 -15 4 -4 12 6 22 13 22 15 0 8 -5 6 -26 -11z"/>
<path d="M910 2340 c0 -5 5 -10 10 -10 6 0 10 5 10 10 0 6 -4 10 -10 10 -5 0
-10 -4 -10 -10z"/>
<path d="M990 2346 c0 -2 7 -7 16 -10 8 -3 12 -2 9 4 -6 10 -25 14 -25 6z"/>
<path d="M1030 2341 c0 -6 4 -13 10 -16 6 -3 7 1 4 9 -7 18 -14 21 -14 7z"/>
<path d="M1050 2345 c0 -7 30 -13 34 -7 3 4 -4 9 -15 9 -10 1 -19 0 -19 -2z"/>
<path d="M1096 2333 c-6 -14 -5 -15 5 -6 7 7 10 15 7 18 -3 3 -9 -2 -12 -12z"/>
<path d="M1148 2328 c2 -10 6 -18 7 -18 1 0 5 8 7 18 3 11 0 19 -7 19 -7 0
-10 -8 -7 -19z"/>
<path d="M1179 2333 c-12 -16 -12 -17 2 -6 9 7 19 10 22 6 4 -3 7 -1 7 5 0 17
-16 15 -31 -5z"/>
<path d="M1267 2335 c3 -8 9 -12 14 -9 12 7 11 11 -5 17 -10 4 -13 1 -9 -8z"/>
<path d="M1335 2340 c3 -5 8 -10 11 -10 2 0 4 5 4 10 0 6 -5 10 -11 10 -5 0
-7 -4 -4 -10z"/>
<path d="M993 2315 c0 -8 4 -12 9 -9 5 3 6 10 3 15 -9 13 -12 11 -12 -6z"/>
<path d="M1310 2319 c0 -5 5 -7 10 -4 6 3 10 8 10 11 0 2 -4 4 -10 4 -5 0 -10
-5 -10 -11z"/>
<path d="M950 2316 c0 -2 8 -10 18 -17 15 -13 16 -12 3 4 -13 16 -21 21 -21
13z"/>
<path d="M826 2298 c3 -4 15 -13 27 -18 20 -10 20 -10 5 3 -10 8 -16 16 -13
19 3 2 -2 5 -10 5 -8 0 -12 -4 -9 -9z"/>
<path d="M870 2301 c0 -5 8 -15 18 -22 15 -12 16 -12 5 2 -7 9 -10 19 -6 22 3
4 1 7 -5 7 -7 0 -12 -4 -12 -9z"/>
<path d="M910 2299 c0 -5 5 -7 10 -4 6 3 10 8 10 11 0 2 -4 4 -10 4 -5 0 -10
-5 -10 -11z"/>
<path d="M1174 2298 c-4 -7 -4 -10 1 -6 4 4 15 2 24 -5 14 -11 14 -10 2 6 -16
20 -18 21 -27 5z"/>
<path d="M1426 2257 c3 -10 9 -15 12 -12 3 3 0 11 -7 18 -10 9 -11 8 -5 -6z"/>
<path d="M846 2247 c-16 -12 -16 -14 -3 -14 9 0 18 6 21 14 3 7 4 13 3 13 -2
0 -11 -6 -21 -13z"/>
<path d="M1376 2218 c3 -4 11 -5 19 -1 21 7 19 12 -4 10 -11 0 -18 -5 -15 -9z"/>
<path d="M1430 2221 c0 -6 4 -13 10 -16 6 -3 7 1 4 9 -7 18 -14 21 -14 7z"/>
<path d="M1405 2199 c-6 -8 -4 -10 5 -4 10 6 12 4 6 -11 -6 -15 -5 -17 5 -6 9
9 10 15 2 23 -8 8 -13 7 -18 -2z"/>
<path d="M895 2180 c-3 -5 -1 -10 4 -10 6 0 11 5 11 10 0 6 -2 10 -4 10 -3 0
-8 -4 -11 -10z"/>
<path d="M1439 2173 c-13 -16 -12 -17 4 -4 16 13 21 21 13 21 -2 0 -10 -8 -17
-17z"/>
<path d="M857 2160 c-3 -11 -2 -22 2 -24 4 -3 8 6 9 20 2 29 -4 31 -11 4z"/>
<path d="M899 2113 c-13 -16 -12 -17 4 -4 9 7 17 15 17 17 0 8 -8 3 -21 -13z"/>
<path d="M1400 2115 c-11 -13 -10 -14 4 -9 9 3 16 10 16 15 0 13 -6 11 -20 -6z"/>
<path d="M973 2089 c-2 -23 3 -25 10 -4 4 8 3 16 -1 19 -4 3 -9 -4 -9 -15z"/>
<path d="M1006 2098 c3 -5 10 -6 15 -3 13 9 11 12 -6 12 -8 0 -12 -4 -9 -9z"/>
<path d="M1160 2100 c-12 -7 -10 -9 7 -7 12 0 19 5 17 9 -6 10 -6 10 -24 -2z"/>
<path d="M1290 2100 c0 -5 5 -10 11 -10 5 0 7 5 4 10 -3 6 -8 10 -11 10 -2 0
-4 -4 -4 -10z"/>
<path d="M1335 2100 c-3 -5 -1 -10 4 -10 6 0 11 5 11 10 0 6 -2 10 -4 10 -3 0
-8 -4 -11 -10z"/>
<path d="M1430 2103 c0 -6 5 -15 10 -18 6 -4 7 -11 4 -17 -5 -7 -2 -8 6 -3 8
5 11 3 8 -6 -3 -8 -11 -13 -17 -11 -7 1 -10 -2 -7 -7 4 -5 0 -12 -6 -14 -8 -4
-9 -6 -2 -6 6 -1 17 6 24 14 14 16 40 20 40 6 0 -5 -10 -11 -22 -14 -12 -4
-19 -9 -16 -12 8 -8 48 13 48 25 0 5 -9 14 -20 20 -11 6 -17 16 -14 22 4 6 3
8 -4 4 -6 -3 -15 2 -21 11 -6 10 -11 13 -11 6z"/>
<path d="M876 2078 c3 -4 11 -5 19 -1 21 7 19 12 -4 10 -11 0 -18 -5 -15 -9z"/>
<path d="M1413 2078 c5 -14 -16 -33 -34 -30 -3 0 -6 -6 -6 -13 0 -10 4 -12 12
-5 7 5 15 8 18 5 4 -3 5 -2 2 2 -3 3 2 11 10 17 11 8 12 15 4 26 -9 13 -10 13
-6 -2z"/>
<path d="M866 2057 c3 -10 9 -15 12 -12 3 3 0 11 -7 18 -10 9 -11 8 -5 -6z"/>
<path d="M894 2058 c-4 -6 -3 -8 4 -4 6 3 15 -2 21 -11 9 -16 10 -16 11 -2 0
20 -27 33 -36 17z"/>
<path d="M1075 2050 c-4 -6 -10 -8 -15 -5 -5 3 -11 1 -14 -4 -8 -13 22 -7 36
7 7 7 9 12 6 12 -4 0 -10 -5 -13 -10z"/>
<path d="M1157 2050 c7 -8 20 -15 29 -16 9 -1 13 1 9 4 -4 4 -10 7 -13 7 -4 0
-14 4 -22 9 -12 7 -13 6 -3 -4z"/>
<path d="M900 2031 c0 -7 -5 -9 -12 -5 -7 5 -8 3 -3 -5 5 -9 10 -10 18 -2 6 6
8 14 4 18 -4 3 -7 1 -7 -6z"/>
<path d="M1269 2023 c-13 -16 -12 -17 4 -4 9 7 17 15 17 17 0 8 -8 3 -21 -13z"/>
<path d="M850 2015 c-11 -13 -10 -15 3 -10 10 5 15 1 14 -12 -1 -10 4 -17 11
-15 6 1 12 -2 12 -8 0 -5 12 -16 28 -24 15 -8 23 -15 18 -16 -5 0 -3 -7 4 -15
7 -9 8 -15 2 -15 -12 0 -11 -18 3 -40 8 -13 7 -13 -10 0 -17 14 -17 14 -4 -7
10 -16 16 -19 22 -10 6 8 7 8 4 -3 -2 -8 -10 -14 -16 -12 -6 1 -11 -3 -11 -8
0 -5 -5 -10 -12 -10 -6 0 -8 3 -5 6 3 4 2 16 -4 27 -9 15 -8 18 3 11 10 -6 9
-3 -2 10 -13 16 -12 20 4 32 17 12 17 14 -9 38 -15 14 -33 22 -42 19 -13 -5
-13 -7 1 -15 13 -7 14 -13 6 -23 -13 -16 -4 -39 11 -30 12 8 6 -29 -8 -47 -11
-14 -14 -48 -4 -45 3 1 16 -4 27 -11 12 -6 24 -8 28 -4 4 3 4 -2 0 -13 -7 -18
-6 -18 9 -6 9 7 17 10 17 5 0 -4 5 -3 11 3 13 13 42 6 33 -8 -3 -5 0 -9 7 -9
10 0 10 -3 1 -12 -16 -16 -15 -29 1 -27 32 4 40 -1 27 -16 -7 -9 -11 -18 -8
-20 3 -3 11 2 18 10 9 11 10 19 2 27 -6 6 -8 18 -5 27 4 12 3 13 -5 3 -7 -11
-10 -10 -16 3 -3 10 -1 24 6 33 11 13 10 14 -8 8 -26 -8 -52 20 -50 51 3 31
12 38 49 38 18 1 31 6 30 12 -1 6 6 18 15 27 16 14 20 14 40 1 13 -10 19 -22
15 -31 -5 -13 -1 -15 15 -10 11 4 23 2 27 -4 10 -16 27 0 20 19 -4 15 0 18 22
17 16 0 34 -6 41 -13 18 -17 29 -16 29 2 0 14 -10 19 -29 16 -5 0 -8 4 -8 9 0
6 4 10 10 10 5 0 14 9 20 20 7 14 7 20 0 20 -5 0 -10 -8 -10 -17 -1 -17 -1
-17 -14 0 -7 9 -17 17 -22 17 -4 0 -3 -5 4 -12 19 -19 14 -29 -8 -16 -14 9
-23 10 -28 3 -11 -16 -45 -19 -37 -3 6 10 5 11 -6 1 -7 -7 -17 -13 -22 -13 -4
0 -5 6 0 13 11 19 14 47 4 47 -5 0 -8 -8 -6 -17 4 -27 -5 -35 -23 -21 -15 11
-15 11 -4 -3 11 -14 9 -16 -13 -16 -14 0 -28 4 -31 9 -4 6 -10 5 -14 -3 -12
-18 -43 -21 -36 -4 3 9 0 12 -9 9 -15 -6 -9 -34 8 -34 11 0 0 -15 -11 -15 -4
0 -13 -4 -19 -8 -7 -5 -13 -4 -13 2 0 5 5 13 11 16 13 8 -15 42 -42 50 -10 4
-16 12 -13 20 4 10 0 13 -16 10 -15 -3 -20 0 -17 9 3 7 2 18 -2 25 -6 9 -11 8
-21 -4z m58 -104 c-2 -8 -11 -15 -20 -17 -20 -2 -24 11 -8 21 8 5 7 12 -2 22
-12 15 -11 15 10 2 12 -8 21 -20 20 -28z m308 11 c1 -7 0 -8 -3 -2 -3 8 -9 7
-19 -1 -8 -6 -14 -7 -14 -2 0 24 31 28 36 5z m-166 -1 c0 -6 -5 -13 -10 -16
-6 -4 -8 -10 -6 -14 3 -4 -6 -7 -19 -7 -17 0 -21 3 -15 11 6 7 6 16 2 20 -4 5
-2 5 5 1 6 -3 14 -2 18 4 8 13 25 13 25 1z m80 -1 c0 10 3 10 14 1 11 -9 15
-9 19 1 4 9 6 9 6 1 1 -6 -4 -15 -9 -18 -8 -5 -7 -12 2 -23 12 -15 11 -16 -4
-3 -10 7 -15 18 -11 24 4 6 0 8 -10 4 -9 -3 -21 1 -29 11 -12 15 -11 16 5 3
13 -10 17 -10 17 -1z m-150 -34 c0 -2 -6 -9 -14 -15 -11 -9 -16 -9 -22 0 -4 7
-3 9 4 5 6 -3 13 -2 17 4 6 10 15 14 15 6z m-85 -46 c-3 -5 0 -10 7 -10 11 0
10 -2 0 -9 -11 -7 -11 -9 2 -14 8 -3 24 -4 35 -2 11 2 24 -1 27 -7 5 -7 2 -8
-6 -3 -10 6 -12 4 -6 -11 6 -15 5 -17 -5 -6 -7 6 -22 12 -32 12 -26 0 -49 31
-35 47 12 15 22 17 13 3z"/>
<path d="M1019 1903 c-13 -16 -12 -17 4 -4 9 7 17 15 17 17 0 8 -8 3 -21 -13z"/>
<path d="M1556 2018 c3 -5 10 -6 15 -3 13 9 11 12 -6 12 -8 0 -12 -4 -9 -9z"/>
<path d="M1660 2020 c-8 -5 -13 -10 -10 -11 3 0 13 -2 22 -4 11 -2 15 2 11 11
-6 16 -4 16 -23 4z"/>
<path d="M916 2012 c-2 -4 -1 -14 4 -22 7 -11 9 -9 7 8 -1 24 -3 26 -11 14z"/>
<path d="M1174 2003 c2 -10 -6 -23 -17 -29 -17 -10 -18 -12 -3 -17 10 -4 15
-3 12 2 -3 5 0 11 8 14 14 6 16 30 4 43 -4 3 -5 -2 -4 -13z"/>
<path d="M955 2000 c26 -11 35 -12 35 -2 0 4 -12 8 -27 9 -24 1 -25 1 -8 -7z"/>
<path d="M1400 2000 c-9 -6 -10 -10 -3 -10 6 0 15 5 18 10 8 12 4 12 -15 0z"/>
<path d="M1437 1999 c7 -7 15 -10 18 -7 3 3 -2 9 -12 12 -14 6 -15 5 -6 -5z"/>
<path d="M1005 1980 c-3 -5 -2 -17 3 -26 8 -15 10 -15 15 0 5 12 3 15 -5 10
-8 -5 -9 -2 -5 9 7 19 2 23 -8 7z"/>
<path d="M1260 1986 c0 -2 7 -6 15 -10 8 -3 15 -1 15 4 0 6 -7 10 -15 10 -8 0
-15 -2 -15 -4z"/>
<path d="M940 1960 c8 -5 22 -9 30 -9 10 0 8 3 -5 9 -27 12 -43 12 -25 0z"/>
<path d="M1046 1958 c3 -4 9 -8 15 -8 5 0 9 4 9 8 0 5 -7 9 -15 9 -8 0 -12 -4
-9 -9z"/>
<path d="M1706 1913 c-6 -14 -5 -15 5 -6 7 7 10 15 7 18 -3 3 -9 -2 -12 -12z"/>
<path d="M1341 1886 c-10 -12 -8 -13 9 -9 25 7 37 23 17 23 -8 0 -20 -6 -26
-14z"/>
<path d="M1495 1889 c-4 -6 -5 -12 -2 -15 2 -3 7 2 10 11 7 17 1 20 -8 4z"/>
<path d="M910 1879 c0 -5 5 -7 10 -4 6 3 10 8 10 11 0 2 -4 4 -10 4 -5 0 -10
-5 -10 -11z"/>
<path d="M1689 1866 c-1 -3 -2 -9 -3 -13 -1 -5 -5 -13 -9 -19 -8 -13 20 -41
30 -30 3 3 1 6 -6 6 -7 0 -9 5 -4 13 11 18 12 36 2 43 -5 3 -10 3 -10 0z"/>
<path d="M1645 1790 c-3 -5 -12 -7 -20 -3 -26 9 -43 -15 -40 -54 2 -29 0 -34
-9 -22 -25 34 -76 51 -108 37 -10 -5 -20 -3 -23 3 -5 7 -16 3 -31 -12 -13 -12
-21 -25 -19 -29 3 -4 -2 -13 -10 -20 -8 -7 -15 -17 -15 -23 0 -6 11 0 25 13
17 16 28 20 37 13 9 -8 19 -5 32 8 11 11 15 19 10 19 -6 0 -15 -5 -21 -11 -7
-7 -13 -7 -17 0 -4 5 -14 7 -23 4 -13 -5 -13 -3 3 13 15 16 21 17 27 7 5 -7
13 -11 18 -7 22 13 70 13 76 -1 3 -8 9 -12 14 -9 5 3 6 -1 4 -9 -5 -10 6 -13
42 -13 26 0 51 4 54 9 3 5 15 10 25 12 10 2 21 4 24 5 3 1 -5 5 -18 11 -13 5
-21 13 -17 18 3 5 0 13 -6 16 -5 4 -8 13 -5 21 6 16 0 19 -9 4z m-10 -20 c3
-5 0 -7 -8 -4 -8 3 -14 -2 -14 -11 0 -18 2 -18 26 -6 14 8 17 6 16 -11 -2 -23
-29 -32 -54 -18 -12 7 -13 9 -2 10 10 0 11 3 2 13 -8 10 -7 17 1 25 15 15 25
15 33 2z"/>
<path d="M1620 1730 c-12 -7 -10 -9 7 -7 12 0 19 5 17 9 -6 10 -6 10 -24 -2z"/>
<path d="M1165 1750 c-4 -6 13 -28 36 -50 44 -40 73 -46 90 -19 10 16 12 35 2
26 -3 -4 -17 0 -31 9 -26 17 -38 13 -29 -10 4 -9 13 -13 21 -10 8 3 17 1 21
-5 4 -7 0 -8 -11 -4 -13 5 -15 3 -9 -7 5 -7 -3 -5 -17 6 -14 10 -24 24 -21 30
4 12 -22 44 -37 44 -5 0 -12 -5 -15 -10z m35 -25 c14 -19 14 -19 -2 -6 -10 7
-18 18 -18 24 0 6 1 8 3 6 1 -2 9 -13 17 -24z"/>
<path d="M1114 1736 c-17 -13 -18 -16 -3 -31 8 -8 24 -17 36 -19 16 -4 20 0
17 19 -5 46 -18 54 -50 31z m41 -15 c8 -14 -10 -22 -30 -15 -13 5 -14 8 -3 15
17 11 26 11 33 0z"/>
<path d="M1075 1731 c-3 -5 -1 -12 5 -16 5 -3 10 1 10 9 0 18 -6 21 -15 7z"/>
<path d="M1350 1720 c0 -5 5 -10 11 -10 5 0 7 5 4 10 -3 6 -8 10 -11 10 -2 0
-4 -4 -4 -10z"/>
<path d="M1493 1708 c6 -9 15 -14 19 -12 5 3 5 10 2 16 -4 7 -2 8 5 4 6 -4 9
-11 6 -16 -3 -5 3 -14 14 -19 25 -14 31 -14 31 0 0 5 -4 7 -10 4 -5 -3 -15 5
-21 18 -7 17 -19 24 -34 23 -18 -1 -20 -4 -12 -18z"/>
<path d="M1539 2267 c6 -8 7 -18 3 -22 -4 -5 -1 -5 6 -1 10 6 10 11 1 22 -6 8
-14 14 -16 14 -3 0 0 -6 6 -13z"/>
<path d="M1574 2162 c4 -7 2 -12 -5 -12 -7 0 -3 -11 10 -24 21 -23 22 -25 5
-34 -16 -9 -15 -10 8 -9 17 2 24 6 20 16 -3 9 -1 12 6 7 7 -4 15 0 18 9 6 13
8 14 15 3 5 -7 9 -8 9 -2 0 6 -12 21 -27 35 -14 13 -24 19 -20 14 3 -6 -4 -17
-15 -24 -18 -11 -20 -11 -15 3 3 8 1 18 -5 22 -7 4 -8 3 -4 -4z m60 -36 c-3
-8 -13 -13 -22 -12 -9 2 -15 7 -12 12 3 5 11 7 19 6 8 -2 10 1 5 9 -4 8 -3 10
4 5 6 -4 9 -13 6 -20z"/>
<path d="M1655 1929 c-4 -6 -4 -13 -1 -16 3 -4 6 -1 6 6 0 7 5 9 12 5 7 -4 8
-3 4 4 -9 15 -13 15 -21 1z"/>
<path d="M1756 1761 c-5 -7 -1 -20 8 -30 9 -10 13 -21 9 -26 -5 -4 -2 -4 6 0
11 6 13 4 8 -8 -3 -9 -2 -19 4 -22 5 -4 7 -10 4 -15 -4 -7 14 -19 32 -20 15
-1 10 33 -7 48 -11 8 -17 18 -15 22 2 3 -6 19 -19 35 -16 20 -25 25 -30 16z
m71 -107 c0 -19 -2 -18 -21 11 -16 25 -16 25 2 14 10 -6 19 -18 19 -25z"/>
<path d="M1800 1599 c0 -5 -4 -7 -10 -4 -6 3 -7 -1 -4 -9 7 -18 24 -22 24 -5
0 5 6 7 13 3 8 -5 8 -2 -2 9 -16 20 -21 21 -21 6z"/>
<path d="M776 1129 c-11 -17 -12 -26 -3 -39 10 -17 12 -17 23 -2 8 11 9 23 3
34 -6 11 -5 18 4 21 9 4 9 6 0 6 -6 1 -19 -9 -27 -20z m18 -31 c-9 -14 -23 2
-17 18 4 12 8 13 14 3 4 -7 5 -17 3 -21z"/>
<path d="M835 1080 c4 -6 11 -8 16 -5 14 9 11 15 -7 15 -8 0 -12 -5 -9 -10z"/>
<path d="M794 1044 c-18 -14 -18 -15 4 -4 12 6 22 13 22 15 0 8 -5 6 -26 -11z"/>
<path d="M865 1024 c9 -9 19 -13 23 -10 3 4 0 11 -8 16 -24 15 -33 11 -15 -6z"/>
<path d="M835 1000 c-13 -15 -14 -22 -5 -37 9 -15 10 -15 4 7 -6 22 -5 23 9
11 9 -7 15 -17 12 -21 -4 -7 3 -7 34 -1 2 1 -2 7 -8 15 -8 9 -8 15 -1 18 5 1
2 8 -9 15 -16 10 -22 9 -36 -7z m23 -3 c-1 -2 4 -12 12 -23 14 -19 14 -19 -7
0 -13 10 -20 23 -17 28 3 5 8 7 11 4 2 -2 3 -6 1 -9z"/>
<path d="M898 958 c-8 -20 -7 -33 3 -30 5 1 9 -2 9 -8 0 -5 5 -10 11 -10 6 0
7 5 2 13 -4 6 -8 18 -9 25 -3 20 -11 25 -16 10z"/>
<path d="M1682 931 c-11 -7 -11 -9 0 -14 9 -3 15 1 15 9 0 8 -1 14 -1 14 -1 0
-7 -4 -14 -9z"/>
<path d="M826 2422 c-2 -4 4 -8 14 -8 10 0 16 4 14 8 -3 4 -9 8 -14 8 -5 0
-11 -4 -14 -8z"/>
<path d="M940 2416 c7 -7 13 -7 20 0 6 6 3 10 -10 10 -13 0 -16 -4 -10 -10z"/>
<path d="M1210 2419 c0 -5 5 -7 10 -4 6 3 10 8 10 11 0 2 -4 4 -10 4 -5 0 -10
-5 -10 -11z"/>
<path d="M1415 2420 c3 -5 8 -10 11 -10 2 0 4 5 4 10 0 6 -5 10 -11 10 -5 0
-7 -4 -4 -10z"/>
<path d="M1530 2423 c0 -6 8 -17 18 -24 16 -13 16 -13 2 6 -8 11 -16 22 -17
24 -2 2 -3 0 -3 -6z"/>
<path d="M1586 2342 c-8 -13 -2 -36 18 -62 10 -14 16 -17 13 -8 -3 9 -1 19 6
22 7 3 4 4 -7 3 -13 -1 -20 5 -22 21 -3 16 0 21 8 16 7 -4 8 -3 4 4 -8 14 -13
15 -20 4z"/>
<path d="M727 2259 c7 -7 15 -10 18 -7 3 3 -2 9 -12 12 -14 6 -15 5 -6 -5z"/>
<path d="M1630 2260 c0 -5 5 -12 10 -15 6 -3 10 -1 10 5 0 6 6 8 13 4 6 -4 8
-3 4 1 -10 12 -37 15 -37 5z"/>
<path d="M1656 2213 c-6 -14 -5 -15 5 -6 7 7 10 15 7 18 -3 3 -9 -2 -12 -12z"/>
<path d="M1676 2201 c-3 -5 11 -26 31 -47 20 -22 32 -33 28 -25 -6 11 -4 13 8
8 9 -3 19 -2 22 3 3 4 -6 7 -19 6 -14 -2 -27 3 -30 10 -3 8 0 14 6 14 17 0 3
11 -19 15 -10 1 -17 8 -15 14 2 13 -5 15 -12 2z"/>
<path d="M770 2066 c0 -2 7 -7 16 -10 8 -3 12 -2 9 4 -6 10 -25 14 -25 6z"/>
<path d="M770 2040 c0 -5 5 -10 11 -10 5 0 7 5 4 10 -3 6 -8 10 -11 10 -2 0
-4 -4 -4 -10z"/>
<path d="M1780 2026 c0 -2 7 -7 16 -10 8 -3 12 -2 9 4 -6 10 -25 14 -25 6z"/>
<path d="M1776 1995 c4 -8 8 -15 10 -15 2 0 4 7 4 15 0 8 -4 15 -10 15 -5 0
-7 -7 -4 -15z"/>
<path d="M753 1974 c0 -9 4 -11 12 -4 7 5 14 9 16 7 2 -1 3 0 1 2 -7 11 -29 7
-29 -5z"/>
<path d="M1794 1953 c2 -9 8 -18 15 -19 6 -1 7 0 2 2 -6 3 -7 12 -4 20 3 8 1
14 -5 14 -6 0 -9 -8 -8 -17z"/>
<path d="M750 1919 c0 -5 5 -7 10 -4 6 3 10 8 10 11 0 2 -4 4 -10 4 -5 0 -10
-5 -10 -11z"/>
<path d="M754 1892 c4 -7 2 -21 -5 -30 -12 -15 -11 -15 6 0 16 15 17 20 6 30
-11 11 -13 10 -7 0z"/>
<path d="M1850 1879 c0 -5 5 -7 10 -4 6 3 10 8 10 11 0 2 -4 4 -10 4 -5 0 -10
-5 -10 -11z"/>
<path d="M699 1858 c-5 -18 -6 -38 -1 -34 7 8 12 36 6 36 -2 0 -4 -1 -5 -2z"/>
<path d="M1853 1800 c-1 -11 2 -22 8 -25 5 -4 6 2 2 12 -6 16 -5 17 13 3 19
-14 19 -14 0 8 -23 27 -21 26 -23 2z"/>
<path d="M1930 1780 c0 -5 5 -10 11 -10 5 0 7 5 4 10 -3 6 -8 10 -11 10 -2 0
-4 -4 -4 -10z"/>
<path d="M690 1760 c0 -5 5 -10 10 -10 6 0 10 5 10 10 0 6 -4 10 -10 10 -5 0
-10 -4 -10 -10z"/>
<path d="M1910 1745 c0 -5 5 -17 10 -25 5 -8 10 -10 10 -5 0 6 -5 17 -10 25
-5 8 -10 11 -10 5z"/>
<path d="M680 1734 c0 -13 18 -39 24 -34 2 3 -2 14 -10 24 -8 11 -14 16 -14
10z"/>
<path d="M637 1719 c7 -7 15 -10 18 -7 3 3 -2 9 -12 12 -14 6 -15 5 -6 -5z"/>
<path d="M800 1715 c-7 -8 -17 -12 -23 -8 -5 3 -7 1 -4 -5 10 -14 44 -4 44 14
0 18 -2 18 -17 -1z"/>
<path d="M1966 1698 c3 -5 10 -6 15 -3 13 9 11 12 -6 12 -8 0 -12 -4 -9 -9z"/>
<path d="M1943 1682 c10 -10 14 -22 10 -27 -5 -4 -2 -5 5 -1 11 6 10 12 -4 27
-9 10 -19 19 -22 19 -3 0 2 -8 11 -18z"/>
<path d="M610 1681 c0 -6 4 -13 10 -16 6 -3 7 1 4 9 -7 18 -14 21 -14 7z"/>
<path d="M575 1660 c-3 -5 -1 -10 4 -10 6 0 11 5 11 10 0 6 -2 10 -4 10 -3 0
-8 -4 -11 -10z"/>
<path d="M755 1651 c-3 -5 -2 -12 3 -15 5 -3 9 1 9 9 0 17 -3 19 -12 6z"/>
<path d="M606 1642 c-3 -5 1 -9 9 -9 8 0 15 4 15 9 0 4 -4 8 -9 8 -6 0 -12 -4
-15 -8z"/>
<path d="M647 1639 c7 -7 15 -10 18 -7 3 3 -2 9 -12 12 -14 6 -15 5 -6 -5z"/>
<path d="M1953 1625 c0 -8 4 -12 9 -9 5 3 6 10 3 15 -9 13 -12 11 -12 -6z"/>
<path d="M575 1620 c3 -5 8 -10 11 -10 2 0 4 5 4 10 0 6 -5 10 -11 10 -5 0 -7
-4 -4 -10z"/>
<path d="M636 1608 c5 -7 2 -9 -8 -6 -8 4 -15 0 -15 -7 0 -10 5 -11 19 -4 20
11 24 29 7 29 -5 0 -7 -5 -3 -12z"/>
<path d="M1910 1590 c0 -6 7 -10 15 -10 8 0 15 2 15 4 0 2 -7 6 -15 10 -8 3
-15 1 -15 -4z"/>
<path d="M1954 1559 c1 -15 4 -31 8 -35 4 -4 5 4 3 16 -3 13 0 29 5 35 7 8 5
12 -4 12 -8 0 -13 -11 -12 -28z"/>
<path d="M637 1569 c7 -7 15 -10 18 -7 3 3 -2 9 -12 12 -14 6 -15 5 -6 -5z"/>
<path d="M597 1552 c-15 -17 -15 -18 6 -19 17 -2 19 0 7 7 -14 9 -7 14 13 11
5 -1 6 3 2 9 -8 13 -9 13 -28 -8z"/>
<path d="M755 1550 c-7 -11 2 -30 13 -30 4 0 8 9 9 20 2 21 -11 27 -22 10z"/>
<path d="M642 1524 c10 -10 20 -16 22 -13 3 3 -5 11 -17 18 -21 13 -21 12 -5
-5z"/>
<path d="M1910 1530 c0 -6 7 -10 15 -10 8 0 15 2 15 4 0 2 -7 6 -15 10 -8 3
-15 1 -15 -4z"/>
<path d="M587 1479 c7 -9 11 -18 8 -21 -3 -3 3 -11 12 -19 16 -12 17 -12 6 2
-7 9 -11 18 -8 21 3 3 -3 11 -12 19 -16 12 -17 12 -6 -2z"/>
<path d="M1900 1479 c0 -5 5 -7 10 -4 6 3 10 8 10 11 0 2 -4 4 -10 4 -5 0 -10
-5 -10 -11z"/>
<path d="M1930 1480 c0 -4 7 -7 15 -6 23 3 26 12 5 13 -11 1 -20 -2 -20 -7z"/>
<path d="M640 1465 c0 -5 5 -17 10 -25 5 -8 10 -10 10 -5 0 6 -5 17 -10 25 -5
8 -10 11 -10 5z"/>
<path d="M1900 1456 c0 -2 7 -6 15 -10 8 -3 15 -1 15 4 0 6 -7 10 -15 10 -8 0
-15 -2 -15 -4z"/>
<path d="M574 1419 c-4 -7 -3 -9 4 -5 6 3 15 -2 21 -11 6 -10 11 -13 11 -7 0
20 -27 37 -36 23z"/>
<path d="M628 1413 c6 -2 18 -2 25 0 6 3 1 5 -13 5 -14 0 -19 -2 -12 -5z"/>
<path d="M1805 1401 c-3 -5 -2 -12 3 -15 5 -3 9 1 9 9 0 17 -3 19 -12 6z"/>
<path d="M1953 1393 c0 -9 4 -10 14 -2 7 6 13 12 13 14 0 1 -6 2 -13 2 -8 0
-14 -6 -14 -14z"/>
<path d="M1915 1390 c-3 -5 -3 -10 2 -10 4 0 1 -5 -7 -10 -8 -5 -10 -10 -5
-10 6 0 17 5 25 10 11 7 11 10 2 10 -7 0 -10 5 -7 10 3 6 4 10 1 10 -3 0 -8
-4 -11 -10z"/>
<path d="M634 1375 c-4 -8 -9 -13 -13 -10 -4 2 -8 -2 -8 -10 0 -19 0 -19 25
10 12 14 17 25 12 25 -6 0 -13 -7 -16 -15z"/>
<path d="M736 1355 c-9 -24 -7 -37 4 -30 6 4 7 12 4 18 -4 7 -3 9 1 4 14 -12
13 -46 -1 -40 -10 4 -11 0 -1 -20 6 -14 14 -23 17 -21 10 11 7 70 -5 87 -11
16 -13 16 -19 2z"/>
<path d="M1885 1340 c-3 -5 -2 -10 4 -10 5 0 13 5 16 10 3 6 2 10 -4 10 -5 0
-13 -4 -16 -10z"/>
<path d="M1786 1321 c-3 -5 3 -11 15 -14 16 -4 18 -3 8 9 -13 16 -16 17 -23 5z"/>
<path d="M1897 1309 c7 -7 15 -10 18 -7 3 3 -2 9 -12 12 -14 6 -15 5 -6 -5z"/>
<path d="M616 1298 c3 -5 10 -6 15 -3 13 9 11 12 -6 12 -8 0 -12 -4 -9 -9z"/>
<path d="M1930 1299 c0 -5 5 -7 10 -4 6 3 10 8 10 11 0 2 -4 4 -10 4 -5 0 -10
-5 -10 -11z"/>
<path d="M646 1262 c-3 -5 1 -9 9 -9 8 0 12 4 9 9 -3 4 -7 8 -9 8 -2 0 -6 -4
-9 -8z"/>
<path d="M1919 1253 c-12 -16 -12 -17 2 -6 9 7 20 9 24 5 5 -4 5 -1 1 6 -9 16
-11 15 -27 -5z"/>
<path d="M660 1238 c0 -2 9 -11 20 -21 11 -9 20 -13 20 -7 0 5 -9 14 -20 20
-11 6 -20 9 -20 8z"/>
<path d="M1896 1222 c-3 -4 4 -9 15 -9 23 -2 25 3 4 10 -8 4 -16 3 -19 -1z"/>
<path d="M667 1191 c-4 -17 -3 -21 5 -13 5 5 8 16 6 23 -3 8 -7 3 -11 -10z"/>
<path d="M1865 1200 c3 -5 11 -10 16 -10 6 0 7 5 4 10 -3 6 -11 10 -16 10 -6
0 -7 -4 -4 -10z"/>
<path d="M1906 1182 c-3 -5 1 -9 9 -9 8 0 12 4 9 9 -3 4 -7 8 -9 8 -2 0 -6 -4
-9 -8z"/>
<path d="M675 1150 c-3 -6 1 -7 9 -4 18 7 21 14 7 14 -6 0 -13 -4 -16 -10z"/>
<path d="M1850 1120 c0 -5 5 -10 10 -10 6 0 10 5 10 10 0 6 -4 10 -10 10 -5 0
-10 -4 -10 -10z"/>
<path d="M1717 1093 c-10 -10 -8 -25 2 -19 14 9 20 -17 8 -39 -7 -15 -7 -17 2
-9 7 6 14 19 15 28 1 10 8 21 15 26 9 5 10 10 3 14 -6 3 -14 1 -18 -5 -5 -8
-8 -8 -13 0 -4 6 -10 8 -14 4z"/>
<path d="M690 1064 c0 -2 9 -8 20 -14 11 -6 20 -7 20 -2 0 6 -9 12 -20 15 -11
3 -20 3 -20 1z"/>
<path d="M706 1018 c3 -5 10 -6 15 -3 13 9 11 12 -6 12 -8 0 -12 -4 -9 -9z"/>
<path d="M1821 1013 c-1 -17 16 -25 25 -12 4 7 3 9 -4 5 -5 -3 -13 0 -15 6 -4
9 -6 10 -6 1z"/>
<path d="M1794 979 c-3 -6 -1 -16 5 -22 9 -9 10 -7 5 7 -6 15 -4 17 6 11 9 -5
11 -4 6 3 -9 15 -13 15 -22 1z"/>
<path d="M753 966 c0 -6 9 -13 19 -13 10 -1 18 0 18 2 0 2 -8 9 -18 14 -14 7
-19 6 -19 -3z"/>
<path d="M1620 947 c-12 -21 -12 -21 6 -7 10 8 20 15 22 16 2 1 -1 4 -5 7 -5
3 -15 -4 -23 -16z"/>
<path d="M746 922 c-3 -5 1 -9 9 -9 8 0 15 4 15 9 0 4 -4 8 -9 8 -6 0 -12 -4
-15 -8z"/>
<path d="M788 903 c6 -2 10 -9 7 -14 -4 -5 1 -6 10 -2 13 5 14 7 3 14 -7 5
-17 8 -23 8 -5 0 -4 -3 3 -6z"/>
<path d="M956 892 c-3 -5 1 -9 9 -9 8 0 12 4 9 9 -3 4 -7 8 -9 8 -2 0 -6 -4
-9 -8z"/>
<path d="M2210 395 c0 -8 2 -15 4 -15 2 0 6 7 10 15 3 8 1 15 -4 15 -6 0 -10
-7 -10 -15z"/>
<path d="M2186 361 c-3 -5 2 -15 12 -22 15 -13 16 -12 4 3 -10 13 -10 17 0 21
9 4 9 6 1 6 -6 1 -14 -3 -17 -8z"/>
<path d="M416 287 c2 -7 15 -13 29 -13 33 -2 32 2 -4 14 -22 8 -29 8 -25 -1z"/>
<path d="M1950 199 c0 -5 5 -7 10 -4 6 3 10 8 10 11 0 2 -4 4 -10 4 -5 0 -10
-5 -10 -11z"/>
<path d="M577 183 c-3 -5 5 -8 18 -8 13 0 21 3 18 8 -2 4 -10 7 -18 7 -8 0
-16 -3 -18 -7z"/>
<path d="M1960 180 c-9 -6 -10 -10 -3 -10 6 0 15 5 18 10 8 12 4 12 -15 0z"/>
<path d="M1850 158 c0 -4 4 -8 9 -8 6 0 12 4 15 8 3 5 -1 9 -9 9 -8 0 -15 -4
-15 -9z"/>
<path d="M750 138 c0 -6 3 -8 7 -5 3 4 12 -1 20 -11 12 -16 13 -15 6 3 -6 18
-5 18 10 6 11 -9 17 -10 17 -2 0 6 -3 11 -7 12 -5 0 -18 2 -30 5 -13 2 -23 -1
-23 -8z"/>
<path d="M1795 139 c-4 -6 -5 -12 -2 -15 2 -3 7 2 10 11 7 17 1 20 -8 4z"/>
<path d="M853 117 c0 -9 9 -12 26 -9 23 5 24 6 6 13 -29 11 -32 11 -32 -4z"/>
<path d="M955 109 c-4 -6 -4 -13 -1 -16 3 -4 6 -1 6 6 0 7 5 9 12 5 7 -4 8 -3
4 4 -9 15 -13 15 -21 1z"/>
<path d="M1226 79 c2 -4 12 -6 22 -4 9 1 22 -1 28 -6 6 -5 11 -4 11 4 0 8 -13
13 -33 13 -18 0 -31 -3 -28 -7z"/>
<path d="M1379 73 c-13 -15 -12 -15 9 -4 23 12 28 21 13 21 -5 0 -15 -7 -22
-17z"/>
</g>
</svg>
