<?xml version="1.0" standalone="no"?>
<!DOCTYPE svg PUBLIC "-//W3C//DTD SVG 20010904//EN"
 "http://www.w3.org/TR/2001/REC-SVG-20010904/DTD/svg10.dtd">
<svg version="1.0" xmlns="http://www.w3.org/2000/svg"
 width="256.000000pt" height="256.000000pt" viewBox="0 0 256.000000 256.000000"
 preserveAspectRatio="xMidYMid meet">
<metadata>
Created by potrace 1.11, written by Peter Selinger 2001-2013
</metadata>
<g transform="translate(0.000000,256.000000) scale(0.100000,-0.100000)"
fill="#000000" stroke="none">
<path d="M210 2332 c-30 -4 -58 -28 -74 -62 -9 -19 -12 -237 -11 -905 0 -598
-3 -882 -10 -887 -7 -5 -7 -8 0 -8 12 0 13 -89 2 -107 -5 -7 -4 -13 2 -13 5 0
8 -11 7 -25 -2 -16 8 -38 29 -62 l33 -38 1078 0 c644 -1 1089 3 1105 9 14 5
34 23 45 40 19 30 20 50 19 1006 -1 696 -4 981 -12 995 -6 11 -21 29 -33 40
-21 19 -40 20 -1088 20 -587 0 -1078 -2 -1092 -3z"/>
</g>
</svg>
